<?xml version="1.0" encoding="UTF-8"?>
<svg width="160px" height="40px" viewBox="0 0 160 40" version="1.1" xmlns="http://www.w3.org/2000/svg" xmlns:xlink="http://www.w3.org/1999/xlink">
    <!-- Generator: Sketch 55.2 (78181) - https://sketchapp.com -->
    <title>logo white</title>
    <desc>Created with Sketch.</desc>
    <g id="logo-white" stroke="none" stroke-width="1" fill="none" fill-rule="evenodd">
        <g id="Group" transform="translate(0.000000, 2.000000)" fill="#FFFFFF" fill-rule="nonzero">
            <path d="M128.343164,26.379346 L123.967828,26.379346 L123.967828,25.2695353 C122.895442,26.2512909 121.479893,26.8488812 119.72118,26.8488812 C116.117962,26.8488812 113.029491,23.8182444 113.029491,19.2509466 C113.029491,14.7690189 116.075067,11.653012 119.72118,11.653012 C121.479893,11.653012 122.895442,12.2079174 123.967828,13.232358 L123.967828,12.0798623 L128.300268,12.0798623 L128.300268,26.379346 L128.343164,26.379346 Z M123.967828,19.2509466 C123.967828,17.0740103 122.380697,15.5373494 120.621984,15.5373494 C118.734584,15.5373494 117.36193,17.0313253 117.36193,19.2509466 C117.36193,21.470568 118.734584,22.9645439 120.621984,22.9645439 C122.423592,22.9645439 123.967828,21.427883 123.967828,19.2509466 Z M50.3592493,21.7693632 C50.5737265,23.0072289 51.689008,23.4340792 52.9329759,23.4340792 C54.1340483,23.4340792 54.7774799,22.9218589 54.7774799,22.2815835 C54.7774799,21.8120482 54.3914209,21.427883 53.3619303,21.2144578 L50.4450402,20.6595525 C47.7855228,20.1900172 46.2412869,18.7387263 46.2412869,16.47642 C46.2412869,13.5311532 48.8150134,11.610327 52.4182306,11.610327 C56.0214477,11.610327 58.3806971,13.232358 58.9812332,15.7080895 L54.7774799,16.519105 C54.6487936,15.6227194 53.7908847,14.854389 52.3753351,14.854389 C51.1313673,14.854389 50.7453083,15.4519793 50.7453083,15.9641997 C50.7453083,16.3483649 50.9168901,16.7752151 51.8176944,16.9459552 L55.2064343,17.6289157 C57.9517426,18.183821 59.1957105,19.848537 59.1957105,21.9401033 C59.1957105,25.0987952 56.4504021,26.7635112 52.6327078,26.7635112 C49.2439678,26.7635112 46.3699732,25.5256454 45.8552279,22.5803787 L50.3592493,21.7693632 Z M75.5817694,20.4461274 L65.0294906,20.4461274 C65.4155496,22.1535284 66.5737265,23.220654 68.1179625,23.220654 C69.1903485,23.220654 70.4343164,22.9645439 71.2064343,21.555938 L75.2815013,22.3669535 C74.0375335,25.3975904 71.4209115,26.8488812 68.1179625,26.8488812 C63.9571046,26.8488812 60.5254692,23.7755594 60.5254692,19.2509466 C60.5254692,14.7263339 63.9571046,11.653012 68.1608579,11.653012 C72.2359249,11.653012 75.4959786,14.5555938 75.5817694,19.2509466 L75.5817694,20.4461274 Z M65.1152815,17.5862306 L71.0348525,17.5862306 C70.6058981,16.0495697 69.4477212,15.3239243 68.1179625,15.3239243 C66.8739946,15.3666093 65.5442359,16.1776248 65.1152815,17.5862306 Z M92.9115282,19.2509466 C92.9115282,23.7755594 89.308311,26.8061962 85.0187668,26.8061962 C80.6434316,26.8061962 77.0402145,23.7755594 77.0402145,19.2509466 C77.0402145,14.7263339 80.6434316,11.6956971 85.0187668,11.6956971 C89.308311,11.7383821 92.9115282,14.7690189 92.9115282,19.2509466 Z M88.4932976,19.2509466 C88.4932976,17.0313253 86.8203753,15.5373494 85.0187668,15.5373494 C83.1742627,15.5373494 81.458445,17.0313253 81.458445,19.2509466 C81.458445,21.513253 83.1313673,22.9645439 85.0187668,22.9645439 C86.7774799,22.9645439 88.4932976,21.513253 88.4932976,19.2509466 Z M111.442359,19.2509466 C111.442359,23.7755594 108.225201,26.8488812 104.407507,26.8488812 C102.520107,26.8488812 101.018767,26.2512909 99.9463807,25.1841652 L99.9463807,26.422031 L95.3565684,26.422031 L95.3565684,4.43924269 L99.9463807,4.43924269 L99.9463807,13.3177281 C101.018767,12.2506024 102.520107,11.653012 104.407507,11.653012 C108.182306,11.610327 111.442359,14.7690189 111.442359,19.2509466 Z M106.895442,19.2509466 C106.895442,17.0313253 105.436997,15.5373494 103.420912,15.5373494 C101.576408,15.5373494 99.9034853,17.0313253 99.9034853,19.2509466 C99.9034853,21.470568 101.576408,22.9645439 103.420912,22.9645439 C105.436997,22.9645439 106.895442,21.427883 106.895442,19.2509466 Z M134.605898,21.7693632 C134.820375,23.0072289 135.935657,23.4340792 137.179625,23.4340792 C138.380697,23.4340792 139.024129,22.9218589 139.024129,22.2815835 C139.024129,21.8120482 138.63807,21.427883 137.608579,21.2144578 L134.691689,20.6595525 C132.032172,20.1900172 130.487936,18.7387263 130.487936,16.47642 C130.487936,13.5311532 133.061662,11.610327 136.664879,11.610327 C140.268097,11.610327 142.627346,13.232358 143.227882,15.7080895 L139.024129,16.519105 C138.895442,15.6227194 138.037534,14.854389 136.621984,14.854389 C135.378016,14.854389 134.991957,15.4519793 134.991957,15.9641997 C134.991957,16.3483649 135.163539,16.7752151 136.064343,16.9459552 L139.453083,17.6289157 C142.198391,18.183821 143.442359,19.848537 143.442359,21.9401033 C143.442359,25.0987952 140.697051,26.7635112 136.879357,26.7635112 C133.490617,26.7635112 130.616622,25.5256454 130.101877,22.5803787 L134.605898,21.7693632 Z M159.914209,20.4461274 L149.36193,20.4461274 C149.747989,22.1535284 150.906166,23.220654 152.450402,23.220654 C153.522788,23.220654 154.766756,22.9645439 155.538874,21.555938 L159.613941,22.3669535 C158.369973,25.3975904 155.753351,26.8488812 152.450402,26.8488812 C148.289544,26.8488812 144.857909,23.7755594 144.857909,19.2509466 C144.857909,14.7263339 148.289544,11.653012 152.493298,11.653012 C156.568365,11.653012 159.828418,14.5555938 159.914209,19.2509466 L159.914209,20.4461274 Z M149.447721,17.5862306 L155.367292,17.5862306 C154.938338,16.0495697 153.780161,15.3239243 152.450402,15.3239243 C151.206434,15.3666093 149.876676,16.1776248 149.447721,17.5862306 Z" id="Combined-Shape"></path>
            <g id="logo-symlol">
                <path d="M18.4545455,9.20465686 C18.4545455,6.12132353 18.5,3.08333333 18.5,0.0453431373 C12.2727273,0.0453431373 6.13636364,0.0453431373 0.0454545455,0 C0.0454545455,9.25 0,18.5 0,27.7953431 C6.09090909,27.7953431 12.2272727,27.7953431 18.4545455,27.7953431 C18.4545455,30.8786765 18.4090909,33.9620098 18.4090909,36.9546569 C24.6818182,36.9546569 30.8181818,36.9546569 36.9545455,37 C36.9545455,27.8406863 36.9545455,18.5906863 37,9.20465686 C30.8636364,9.20465686 24.6818182,9.20465686 18.4545455,9.20465686 Z M18.3636364,18.3639706 C15.3636364,18.3639706 12.3181818,18.3639706 9.31818182,18.3639706 C9.31818182,15.3713235 9.31818182,12.3333333 9.36363636,9.34068627 C12.3636364,9.34068627 15.4090909,9.34068627 18.4090909,9.34068627 C18.3636364,12.3786765 18.3636364,15.4166667 18.3636364,18.3639706 Z M27.5909091,27.7046569 C24.5909091,27.7046569 21.5454545,27.7046569 18.5,27.6593137 C18.5,24.6666667 18.5,21.5833333 18.5,18.5906863 C21.5454545,18.5906863 24.5909091,18.5906863 27.5909091,18.5906863 C27.6363636,21.6740196 27.6363636,24.7120098 27.5909091,27.7046569 Z"></path>
            </g>
        </g>
    </g>
</svg>