<?xml version="1.0" encoding="UTF-8"?>
<svg width="32px" height="32px" viewBox="0 0 32 32" version="1.1" xmlns="http://www.w3.org/2000/svg" xmlns:xlink="http://www.w3.org/1999/xlink">
    <g id="logo-symlol" stroke="none" stroke-width="1" fill="none" fill-rule="evenodd">
        <path d="M15.960688,7.96078431 C15.960688,5.29411765 16,2.66666667 16,0.0392156863 C10.6142506,0.0392156863 5.30712531,0.0392156863 0.0393120393,0 C0.0393120393,8 0,16 0,24.0392157 C5.26781327,24.0392157 10.5749386,24.0392157 15.960688,24.0392157 C15.960688,26.7058824 15.9213759,29.372549 15.9213759,31.9607843 C21.3464373,31.9607843 26.6535627,31.9607843 31.960688,32 C31.960688,24.0784314 31.960688,16.0784314 32,7.96078431 C26.6928747,7.96078431 21.3464373,7.96078431 15.960688,7.96078431 Z M15.8820639,15.8823529 C13.2874693,15.8823529 10.6535627,15.8823529 8.05896806,15.8823529 C8.05896806,13.2941176 8.05896806,10.6666667 8.0982801,8.07843137 C10.6928747,8.07843137 13.3267813,8.07843137 15.9213759,8.07843137 C15.8820639,10.7058824 15.8820639,13.3333333 15.8820639,15.8823529 Z M23.8624079,23.9607843 C21.2678133,23.9607843 18.6339066,23.9607843 16,23.9215686 C16,21.3333333 16,18.6666667 16,16.0784314 C18.6339066,16.0784314 21.2678133,16.0784314 23.8624079,16.0784314 C23.9017199,18.745098 23.9017199,21.372549 23.8624079,23.9607843 Z" fill="rgba(255,255,255,.2)" fill-rule="nonzero"></path>
    </g>
</svg>