<svg xmlns="http://www.w3.org/2000/svg" width="53.861" height="48.804" viewBox="0 0 53.861 48.804">
  <defs>
    <style>.a{fill:#70b100;}.b{fill:#fff;}</style>
  </defs>
  <g transform="translate(60.159 45.284)">
    <path fill="#70b100" d="M-18.181-35.98a16.935,16.935,0,0,0-15.047-9.3A16.843,16.843,0,0,0-49.85-30.977h-.21a10.11,10.11,0,0,0-10.1,10.1,10.11,10.11,0,0,0,10.1,10.1h4.214v7.566A2.528,2.528,0,0,0-43.321-.689h5.7l-.505,2.525h-.993a.84.84,0,0,0-.841.841.84.84,0,0,0,.841.841h11.782a.84.84,0,0,0,.841-.841.84.84,0,0,0-.841-.841h-.994l-.505-2.525h5.7a2.528,2.528,0,0,0,2.525-2.524v-7.566h1.691A12.638,12.638,0,0,0-6.3-23.4,12.665,12.665,0,0,0-18.181-35.98ZM-22.295-5.738H-44.162V-18.351a.842.842,0,0,1,.841-.841h20.185a.842.842,0,0,1,.841.841Zm-7.754,7.575H-36.41L-35.9-.689h5.351Zm6.912-4.208H-43.321a.842.842,0,0,1-.841-.841v-.841h10.951a.837.837,0,0,0-.837.841.845.845,0,0,0,.846.841.842.842,0,0,0,.841-.841.841.841,0,0,0-.841-.841h10.909v.841a.843.843,0,0,1-.843.841Zm4.215-10.091h-1.691v-5.889a2.528,2.528,0,0,0-2.524-2.525H-43.321a2.528,2.528,0,0,0-2.525,2.525v5.889H-50.06a8.425,8.425,0,0,1-8.416-8.415,8.425,8.425,0,0,1,8.416-8.416h.043c-.015.28-.043.557-.043.841a.84.84,0,0,0,.841.841.841.841,0,0,0,.841-.841A15.166,15.166,0,0,1-33.229-43.6,15.22,15.22,0,0,1-18.42-31.656a15.24,15.24,0,0,1,.34,3.2.84.84,0,0,0,.841.841.84.84,0,0,0,.841-.841,16.865,16.865,0,0,0-.377-3.558,16.573,16.573,0,0,0-.657-2.214A10.987,10.987,0,0,1-7.981-23.4,10.953,10.953,0,0,1-18.921-12.463Z" transform="translate(0)"/>
    <path fill="#fff" d="M-32.349-34.566a.828.828,0,0,0-.274-.183.839.839,0,0,0-.643,0,.812.812,0,0,0-.273.183l-1.683,1.682a.84.84,0,0,0,0,1.19.838.838,0,0,0,.6.246.84.84,0,0,0,.6-.246l.246-.246v6.386a.84.84,0,0,0,.841.841.84.84,0,0,0,.841-.841V-31.94l.247.246a.836.836,0,0,0,.6.246.84.84,0,0,0,.6-.246.842.842,0,0,0,0-1.19Z" transform="translate(3.083 1.307)"/>
    <path fill="#fff" d="M-37.844-27.832l-.246.246v-6.386a.841.841,0,0,0-.841-.841.84.84,0,0,0-.841.841v6.386l-.247-.246a.84.84,0,0,0-1.19,0,.842.842,0,0,0,0,1.19l1.683,1.682a.825.825,0,0,0,.274.182.814.814,0,0,0,.322.065.813.813,0,0,0,.321-.065.8.8,0,0,0,.274-.182l1.683-1.682a.842.842,0,0,0,0-1.19.84.84,0,0,0-1.19,0Z" transform="translate(2.335 1.307)"/>
  </g>
</svg>
