<svg xmlns="http://www.w3.org/2000/svg" width="46.278" height="42.074" viewBox="0 0 46.278 42.074">
  <defs>
    <style>.a{fill:#fff;}.b{fill:#70b100;}.c{fill:none;stroke:#fff;stroke-linecap:round;stroke-miterlimit:10;stroke-width:1.5px;}</style>
  </defs>
  <g transform="translate(113.76 -10.765)">
    <path fill="#fff" d="M-95.6,40.22a.779.779,0,0,1-.5-.186l-5.037-4.289a.778.778,0,0,1-.086-1.1.785.785,0,0,1,.086-.087l5.037-4.289a.778.778,0,0,1,1.1.088.777.777,0,0,1-.088,1.1h0l-4.341,3.7,4.341,3.7a.778.778,0,0,1,.086,1.1.777.777,0,0,1-.591.273Z"/>
    <path fill="#fff" d="M-85.652,40.22a.778.778,0,0,1-.777-.78.781.781,0,0,1,.272-.591l4.341-3.7-4.341-3.7a.779.779,0,0,1-.088-1.1.778.778,0,0,1,1.1-.088l5.037,4.289a.777.777,0,0,1,.087,1.1.715.715,0,0,1-.087.087l-5.037,4.289A.772.772,0,0,1-85.652,40.22Z"/>
    <path fill="#fff" d="M-92.407,43.437a.81.81,0,0,1-.162-.017.78.78,0,0,1-.6-.922l3.139-14.9a.779.779,0,0,1,.922-.6.778.778,0,0,1,.6.922l-3.139,14.9A.777.777,0,0,1-92.407,43.437Z"/>
    <path fill="#70b100" d="M-68.232,52.839h-40.559c-2.74,0-4.969-1.89-4.969-4.212V15.513a.75.75,0,0,1,.75-.75.75.75,0,0,1,.75.75V48.627c0,1.5,1.556,2.712,3.469,2.712h39.809V18.452a.75.75,0,0,1,.75-.75.75.75,0,0,1,.75.75V52.089A.75.75,0,0,1-68.232,52.839Z"/>
    <path class="c" d="M-68.232,18.452"/>
    <path fill="#70b100" d="M-68.232,19.2h-41.2a4.281,4.281,0,0,1-4.332-4.219,4.281,4.281,0,0,1,4.332-4.218h36.051a.75.75,0,0,1,.75.75V17.7h4.395a.75.75,0,0,1,.75.75A.75.75,0,0,1-68.232,19.2Zm-41.2-6.937a2.779,2.779,0,0,0-2.832,2.718,2.78,2.78,0,0,0,2.832,2.719h35.3V12.265Z"/>
    <path fill="#70b100" d="M-78.287,15.733h-28.149a.75.75,0,0,1-.75-.75.75.75,0,0,1,.75-.75h28.149a.75.75,0,0,1,.75.75A.75.75,0,0,1-78.287,15.733Z"/>
  </g>
</svg>
