<svg xmlns="http://www.w3.org/2000/svg" width="47.149" height="41.599" viewBox="0 0 47.149 41.599">
  <defs>
    <style>.a{fill:#fff;}.b{fill:#70b100;}</style>
  </defs>
  <path fill="#fff" d="M120.815,191.124a.775.775,0,0,1-.5-.186l-5.037-4.289a.779.779,0,0,1,0-1.185l5.037-4.289a.778.778,0,1,1,1.009,1.185l-4.341,3.7,4.341,3.7a.779.779,0,0,1-.505,1.371Zm0,0" transform="translate(-102.212 -160.863)"/>
  <path fill="#fff" d="M250.486,191.124a.779.779,0,0,1-.505-1.371l4.341-3.7-4.341-3.7a.778.778,0,0,1,1.009-1.185l5.037,4.289a.779.779,0,0,1,0,1.185l-5.037,4.289A.775.775,0,0,1,250.486,191.124Zm0,0" transform="translate(-221.94 -160.863)"/>
  <path fill="#fff" d="M189.733,169.486a.792.792,0,0,1-.162-.017.779.779,0,0,1-.6-.922l3.139-14.9a.778.778,0,0,1,1.523.321l-3.139,14.9A.778.778,0,0,1,189.733,169.486Zm0,0" transform="translate(-167.942 -136.008)"/>
  <path fill="#70b100" d="M41.923,41.6H5.226A5.232,5.232,0,0,1,0,36.372V5.226A5.233,5.233,0,0,1,5.226,0h36.7a5.233,5.233,0,0,1,5.226,5.226V36.372A5.232,5.232,0,0,1,41.923,41.6ZM5.226,1.557a3.674,3.674,0,0,0-3.67,3.67V36.372a3.674,3.674,0,0,0,3.67,3.67h36.7a3.674,3.674,0,0,0,3.67-3.67V5.226a3.674,3.674,0,0,0-3.67-3.67Zm0,0"/>
  <path fill="#70b100" d="M46.371,99.647H.778a.778.778,0,1,1,0-1.557H46.371a.778.778,0,1,1,0,1.557Zm0,0" transform="translate(0 -87.182)"/>
  <path fill="#70b100" d="M99.913,39.216a2.463,2.463,0,1,1,2.463-2.463A2.467,2.467,0,0,1,99.913,39.216Zm0-3.37a.907.907,0,1,0,.907.907A.908.908,0,0,0,99.913,35.846Zm0,0" transform="translate(-86.613 -30.476)"/>
  <path fill="#70b100" d="M31.85,39a2.463,2.463,0,1,1,2.463-2.463A2.466,2.466,0,0,1,31.85,39Zm0-3.37a.907.907,0,1,0,.907.907A.908.908,0,0,0,31.85,35.631Zm0,0" transform="translate(-26.119 -30.285)"/>
  <path fill="#70b100" d="M167.979,39.43a2.463,2.463,0,1,1,2.463-2.463A2.466,2.466,0,0,1,167.979,39.43Zm0-3.37a.907.907,0,1,0,.907.907A.907.907,0,0,0,167.979,36.06Zm0,0" transform="translate(-147.11 -30.667)"/>
</svg>
