<svg width="27" height="27" viewBox="0 0 27 27" fill="none" xmlns="http://www.w3.org/2000/svg">
<path d="M22.1949 27H4.80508C3.53107 26.9988 2.30958 26.4921 1.40871 25.5913C0.507849 24.6904 0.00121162 23.4689 0 22.1949L0 13.9576C0.00121162 12.6836 0.507849 11.4621 1.40871 10.5612C2.30958 9.66038 3.53107 9.15374 4.80508 9.15253H22.1949C23.4689 9.15374 24.6904 9.66038 25.5913 10.5612C26.4921 11.4621 26.9988 12.6836 27 13.9576V22.1949C26.9988 23.4689 26.4921 24.6904 25.5913 25.5913C24.6904 26.4921 23.4689 26.9988 22.1949 27ZM4.80508 11.4407C4.13792 11.4419 3.49843 11.7074 3.02667 12.1792C2.55491 12.651 2.28935 13.2904 2.28814 13.9576V22.1949C2.28935 22.8621 2.55491 23.5016 3.02667 23.9733C3.49843 24.4451 4.13792 24.7106 4.80508 24.7118H22.1949C22.8621 24.7106 23.5016 24.4451 23.9733 23.9733C24.4451 23.5016 24.7107 22.8621 24.7119 22.1949V13.9576C24.7107 13.2904 24.4451 12.651 23.9733 12.1792C23.5016 11.7074 22.8621 11.4419 22.1949 11.4407H4.80508Z" fill="#72AC0D"/>
<path d="M22.6528 6.86443H4.34768C4.04426 6.86443 3.75326 6.74389 3.5387 6.52934C3.32415 6.31479 3.20361 6.02379 3.20361 5.72036C3.20361 5.41694 3.32415 5.12594 3.5387 4.91138C3.75326 4.69683 4.04426 4.57629 4.34768 4.57629H22.6528C22.9562 4.57629 23.2472 4.69683 23.4617 4.91138C23.6763 5.12594 23.7968 5.41694 23.7968 5.72036C23.7968 6.02379 23.6763 6.31479 23.4617 6.52934C23.2472 6.74389 22.9562 6.86443 22.6528 6.86443Z" fill="#72AC0D"/>
<path d="M20.8218 2.28814H6.17776C5.87433 2.28814 5.58334 2.1676 5.36878 1.95305C5.15423 1.73849 5.03369 1.44749 5.03369 1.14407C5.03369 0.840642 5.15423 0.549644 5.36878 0.33509C5.58334 0.120535 5.87433 0 6.17776 0L20.8218 0C21.1253 0 21.4163 0.120535 21.6308 0.33509C21.8454 0.549644 21.9659 0.840642 21.9659 1.14407C21.9659 1.44749 21.8454 1.73849 21.6308 1.95305C21.4163 2.1676 21.1253 2.28814 20.8218 2.28814Z" fill="#72AC0D"/>
<path d="M12.3928 21.6046C12.0892 21.6046 11.798 21.4845 11.5828 21.2705L9.02921 18.7124C8.9201 18.6067 8.83313 18.4803 8.77338 18.3406C8.71362 18.201 8.68228 18.0508 8.68118 17.8989C8.68008 17.747 8.70924 17.5964 8.76697 17.4559C8.82469 17.3154 8.90982 17.1878 9.01739 17.0805C9.12496 16.9732 9.25281 16.8885 9.39348 16.8311C9.53416 16.7738 9.68485 16.7451 9.83675 16.7466C9.98865 16.7481 10.1387 16.7799 10.2782 16.8401C10.4177 16.9002 10.5438 16.9875 10.6492 17.0969L12.3928 18.8405L16.3512 14.882C16.5661 14.6672 16.8574 14.5465 17.1612 14.5465C17.4651 14.5465 17.7564 14.6672 17.9712 14.882C18.1861 15.0968 18.3068 15.3882 18.3068 15.692C18.3068 15.9958 18.1861 16.2872 17.9712 16.502L13.2028 21.2705C12.9875 21.4845 12.6963 21.6046 12.3928 21.6046Z" fill="#72AC0D"/>
</svg>
