<svg xmlns="http://www.w3.org/2000/svg" width="47.2" height="41.5" viewBox="0 0 47.2 41.5">
  <defs>
    <style>.a{fill:#70b100;}.b{fill:#fff;}</style>
  </defs>
  <g transform="translate(-1049.4 -1727.3)">
    <path fill="#70b100" d="M1091.3,1768.8h-36.7a5.164,5.164,0,0,1-5.2-5.2v-31.1a5.164,5.164,0,0,1,5.2-5.2h36.7a5.164,5.164,0,0,1,5.2,5.2v31.1A5.1,5.1,0,0,1,1091.3,1768.8Zm-36.6-40a3.691,3.691,0,0,0-3.7,3.7v31.1a3.691,3.691,0,0,0,3.7,3.7h36.7a3.691,3.691,0,0,0,3.7-3.7v-31.1a3.691,3.691,0,0,0-3.7-3.7Z"/>
    <path fill="#70b100" d="M1095.8,1739.7h-45.6a.789.789,0,0,1-.8-.8.736.736,0,0,1,.8-.8h45.6a.8.8,0,0,1,0,1.6Z"/>
    <path fill="#70b100" d="M1062.7,1736a2.5,2.5,0,1,1,2.5-2.5h0A2.476,2.476,0,0,1,1062.7,1736Zm0-3.4a.9.9,0,1,0,.9.9h0A.9.9,0,0,0,1062.7,1732.6Z"/>
    <path fill="#70b100" d="M1055.2,1736a2.5,2.5,0,1,1,2.5-2.5A2.61,2.61,0,0,1,1055.2,1736Zm0-3.4a.9.9,0,1,0,.9.9.9.9,0,0,0-.9-.9Z"/>
    <path fill="#70b100" d="M1070.3,1736a2.5,2.5,0,1,1,2.5-2.5h0A2.476,2.476,0,0,1,1070.3,1736Zm0-3.4a.9.9,0,1,0,.9.9h0A.9.9,0,0,0,1070.3,1732.6Z"/>
    <path fill="#fff" d="M1062.5,1745.2h-6a.789.789,0,0,1-.8-.8.736.736,0,0,1,.8-.8h6a.8.8,0,0,1,0,1.6Z"/>
    <path fill="#fff" d="M1071.6,1749.6h-13.9a.789.789,0,0,1-.8-.8.736.736,0,0,1,.8-.8h13.9a.8.8,0,0,1,0,1.6Z"/>
    <path fill="#fff" d="M1088.3,1754h-29.8a.789.789,0,0,1-.8-.8.736.736,0,0,1,.8-.8h29.8a.8.8,0,0,1,0,1.6Z"/>
    <path fill="#fff" d="M1071.6,1758.3h-13.9a.789.789,0,0,1-.8-.8.736.736,0,0,1,.8-.8h13.9a.8.8,0,0,1,0,1.6Z"/>
    <path fill="#fff" d="M1062.5,1762.7h-6a.789.789,0,0,1-.8-.8.736.736,0,0,1,.8-.8h6a.8.8,0,0,1,0,1.6Z"/>
  </g>
</svg>
