<svg xmlns="http://www.w3.org/2000/svg" width="42.225" height="42.22" viewBox="0 0 42.225 42.22">
  <defs>
    <style>.a{fill:#70b100;}.b{fill:#fff;}</style>
  </defs>
  <g transform="translate(105.929 42.035)">
    <path fill="#70b100" d="M-80.855-42.035a4.26,4.26,0,0,1,1.838.852,3.259,3.259,0,0,1,1.2,2.4c.04,1.964.024,3.929.031,5.893,0,.661,0,1.32,0,1.98,0,.784-.3,1.185-.887,1.178-.562-.008-.865-.414-.866-1.165q0-3.669,0-7.337a1.813,1.813,0,0,0-2.025-2.041q-10.285,0-20.569,0a1.809,1.809,0,0,0-2.035,2.034q0,17.312,0,34.624A1.826,1.826,0,0,0-102.1-1.571q10.244,0,20.487,0A1.818,1.818,0,0,0-79.539-3.64q0-3.649,0-7.3a2.117,2.117,0,0,1,.071-.609.823.823,0,0,1,.9-.566.837.837,0,0,1,.756.7,2.551,2.551,0,0,1,.025.411c0,2.487.007,4.973,0,7.461A3.472,3.472,0,0,1-80.412.047a4.209,4.209,0,0,1-1.1.13q-10.346.012-20.692,0a3.533,3.533,0,0,1-3.718-3.734q0-17.375-.008-34.749a3.572,3.572,0,0,1,3.028-3.684.417.417,0,0,0,.112-.05Z" transform="translate(0 0)"/>
    <path fill="#70b100" d="M-66.54-2.951A3.906,3.906,0,0,1-67.609-.82a3.52,3.52,0,0,1-2.5,1q-3.854.015-7.708,0c-.635,0-1.026-.349-1.023-.88s.381-.869,1.03-.872c2.473-.006,4.947,0,7.42,0a1.83,1.83,0,0,0,2.092-2.1q0-17.291,0-34.582a1.823,1.823,0,0,0-2.048-2.025q-3.627,0-7.254,0a3.879,3.879,0,0,1-.494-.021.8.8,0,0,1-.719-.64.813.813,0,0,1,.361-.931c.089-.06.188-.107.282-.16h8.494a4.389,4.389,0,0,1,1.758.737,3.827,3.827,0,0,1,1.375,2.4Z" transform="translate(2.835 0)"/>
    <path fill="#fff" d="M-92.284-8.425q-4.225,0-8.448,0a2.365,2.365,0,0,1-.531-.042.851.851,0,0,1-.667-.872.833.833,0,0,1,.775-.819c.465-.033.933-.024,1.4-.024q7.934,0,15.866,0a3.7,3.7,0,0,1,.576.031.865.865,0,0,1,.711.8.848.848,0,0,1-.584.853,2.161,2.161,0,0,1-.609.071q-4.245.007-8.489,0Z" transform="translate(0.418 3.333)"/>
    <path fill="#fff" d="M-92.266-35.5q-4.225,0-8.448,0c-.809,0-1.232-.313-1.221-.895.012-.567.426-.862,1.215-.862q8.449,0,16.9,0a2.234,2.234,0,0,1,.648.076.846.846,0,0,1,.572.861.866.866,0,0,1-.722.789,3.576,3.576,0,0,1-.534.025h-8.408Z" transform="translate(0.418 0.5)"/>
    <path fill="#fff" d="M-95.041-22.4c.507.5,1,.974,1.481,1.456q1.082,1.075,2.156,2.156a.954.954,0,0,1,.338,1.031.85.85,0,0,1-1.236.486,2.073,2.073,0,0,1-.412-.338q-2-1.993-3.991-3.992c-.606-.608-.605-1.039,0-1.648q1.993-2,3.991-3.992a2.152,2.152,0,0,1,.413-.338.848.848,0,0,1,1.024.144.845.845,0,0,1,.144,1.023,2.365,2.365,0,0,1-.366.442q-1.6,1.607-3.2,3.208C-94.8-22.662-94.9-22.551-95.041-22.4Z" transform="translate(0.918 1.501)"/>
    <path fill="#fff" d="M-77.945-22.514a3.229,3.229,0,0,1-.458-.316Q-80-24.411-81.582-26a2.141,2.141,0,0,1-.336-.413.848.848,0,0,1,.146-1.024.845.845,0,0,1,1.024-.14,2.181,2.181,0,0,1,.412.337q2,1.993,3.992,3.992c.608.61.608,1.042,0,1.648q-1.993,2-3.991,3.993a2.231,2.231,0,0,1-.412.338.85.85,0,0,1-1.025-.139.844.844,0,0,1-.147-1.023,2.323,2.323,0,0,1,.365-.443q1.6-1.607,3.2-3.207C-78.245-22.19-78.145-22.3-77.945-22.514Z" transform="translate(2.501 1.501)"/>
    <path fill="#fff" d="M-89.106-17.155a.871.871,0,0,1-.864-1.015,1.8,1.8,0,0,1,.168-.461q2.093-4.194,4.194-8.384c.287-.572.666-.778,1.133-.632a.832.832,0,0,1,.573,1.065,2.348,2.348,0,0,1-.151.38q-2.084,4.176-4.171,8.351A1.022,1.022,0,0,1-89.106-17.155Z" transform="translate(1.669 1.501)"/>
    <path fill="#fff" d="M-74.575-35.514c-.878,0-1.756.017-2.634-.007a.836.836,0,0,1-.837-.844.877.877,0,0,1,.768-.877,1.024,1.024,0,0,1,.163-.015c1.716,0,3.43-.008,5.146,0a.852.852,0,0,1,.911.72.819.819,0,0,1-.486.939,1.6,1.6,0,0,1-.561.087c-.823.01-1.647,0-2.47,0Z" transform="translate(2.918 0.5)"/>
    <path fill="#fff" d="M-74.5-10.185c.81,0,1.619-.006,2.428,0,.642.006,1.03.337,1.038.865s-.39.886-1.018.888q-2.51.008-5.021,0a.871.871,0,0,1-.943-.685.823.823,0,0,1,.484-.975,1.606,1.606,0,0,1,.562-.086c.824-.009,1.647,0,2.47,0Z" transform="translate(2.919 3.333)"/>
  </g>
</svg>
