<svg xmlns="http://www.w3.org/2000/svg" width="47.149" height="41.599" viewBox="0 0 47.149 41.599">

  <g transform="translate(-275.426 -1727.244)">
    <path fill="#70b100" d="M41.923,41.6H5.226A5.232,5.232,0,0,1,0,36.372V5.226A5.233,5.233,0,0,1,5.226,0h36.7a5.233,5.233,0,0,1,5.226,5.226V36.372A5.232,5.232,0,0,1,41.923,41.6ZM5.226,1.557a3.674,3.674,0,0,0-3.67,3.67V36.372a3.674,3.674,0,0,0,3.67,3.67h36.7a3.674,3.674,0,0,0,3.67-3.67V5.226a3.674,3.674,0,0,0-3.67-3.67Zm0,0" transform="translate(275.426 1727.244)"/>
    <path fill="#70b100" d="M46.371,99.647H.778a.778.778,0,1,1,0-1.557H46.371a.778.778,0,1,1,0,1.557Zm0,0" transform="translate(275.426 1640.061)"/>
    <path fill="#70b100" d="M99.913,39.216a2.463,2.463,0,1,1,2.463-2.463A2.467,2.467,0,0,1,99.913,39.216Zm0-3.37a.907.907,0,1,0,.907.907A.908.908,0,0,0,99.913,35.846Zm0,0" transform="translate(188.813 1696.767)"/>
    <path fill="#70b100" d="M31.85,39a2.463,2.463,0,1,1,2.463-2.463A2.466,2.466,0,0,1,31.85,39Zm0-3.37a.907.907,0,1,0,.907.907A.908.908,0,0,0,31.85,35.631Zm0,0" transform="translate(249.307 1696.958)"/>
    <path fill="#70b100" d="M167.979,39.43a2.463,2.463,0,1,1,2.463-2.463A2.466,2.466,0,0,1,167.979,39.43Zm0-3.37a.907.907,0,1,0,.907.907A.907.907,0,0,0,167.979,36.06Zm0,0" transform="translate(128.315 1696.577)"/>
    <path fill="#fff" d="M82.052,168H69.527a2.046,2.046,0,0,0-2.044,2.044v.043h-.739a2.046,2.046,0,0,0-2.044,2.044v5.61H63.221v-2.131a2.046,2.046,0,0,0-2.044-2.044H50.044A2.046,2.046,0,0,0,48,175.611v5.567a2.046,2.046,0,0,0,2.044,2.044H61.177a2.046,2.046,0,0,0,2.044-2.044v-2.131H64.7v5.61a2.046,2.046,0,0,0,2.044,2.044h.739v.043a2.046,2.046,0,0,0,2.044,2.044H82.052a2.046,2.046,0,0,0,2.044-2.044v-1.392a2.046,2.046,0,0,0-2.044-2.044H69.527a2.046,2.046,0,0,0-2.044,2.044v.043h-.739a.74.74,0,0,1-.739-.739v-5.61h1.479v.044a2.046,2.046,0,0,0,2.044,2.044H82.052A2.046,2.046,0,0,0,84.1,179.09V177.7a2.046,2.046,0,0,0-2.044-2.044H69.527a2.046,2.046,0,0,0-2.044,2.044v.043H66v-5.61a.74.74,0,0,1,.739-.739h.739v.043a2.046,2.046,0,0,0,2.044,2.044H82.052a2.046,2.046,0,0,0,2.044-2.044v-1.392A2.046,2.046,0,0,0,82.052,168ZM61.916,181.177a.74.74,0,0,1-.739.739H50.044a.74.74,0,0,1-.739-.739v-5.567a.74.74,0,0,1,.739-.739H61.177a.74.74,0,0,1,.739.739Zm6.871,4.175a.74.74,0,0,1,.739-.739H82.052a.74.74,0,0,1,.739.739v1.392a.74.74,0,0,1-.739.739H69.527a.74.74,0,0,1-.739-.739Zm0-7.654a.74.74,0,0,1,.739-.739H82.052a.74.74,0,0,1,.739.739v1.392a.74.74,0,0,1-.739.739H69.527a.74.74,0,0,1-.739-.739Zm14-6.262a.74.74,0,0,1-.739.739H69.527a.74.74,0,0,1-.739-.739v-1.392a.74.74,0,0,1,.739-.739H82.052a.74.74,0,0,1,.739.739Z" transform="translate(231.988 1575.096)"/>
  </g>
</svg>
