<svg width="29" height="29" viewBox="0 0 29 29" fill="none" xmlns="http://www.w3.org/2000/svg">
<g clip-path="url(#clip0)">
<path d="M14.5001 0C6.50473 0 0 6.50473 0 14.5001C0 22.4955 6.50473 29.0002 14.5001 29.0002C22.4955 29.0002 29.0002 22.4955 29.0002 14.5001C29.0002 6.50473 22.4953 0 14.5001 0ZM14.5001 25.9462C8.18857 25.9462 3.05377 20.8116 3.05377 14.5001C3.05377 8.18857 8.18857 3.05377 14.5001 3.05377C20.8116 3.05377 25.9464 8.18857 25.9464 14.5001C25.9464 20.8116 20.8116 25.9462 14.5001 25.9462Z" fill="#72AC0D"/>
<path d="M20.5461 14.6613H14.6016V9.51224C14.6016 8.66878 13.9182 7.98535 13.0747 7.98535C12.2313 7.98535 11.5479 8.66878 11.5479 9.51224V16.1882C11.5479 17.0316 12.2313 17.7151 13.0747 17.7151H20.5461C21.3895 17.7151 22.073 17.0316 22.073 16.1882C22.073 15.3447 21.3893 14.6613 20.5461 14.6613Z" fill="#72AC0D"/>
</g>
<defs>
<clipPath id="clip0">
<rect width="29" height="29" fill="white"/>
</clipPath>
</defs>
</svg>
