<svg width="24" height="25" viewBox="0 0 24 25" fill="none" xmlns="http://www.w3.org/2000/svg">
<path d="M14.9413 25.0001H8.49157C7.43663 24.9959 6.42121 24.5948 5.64406 23.8753C4.86691 23.1559 4.38398 22.1698 4.2898 21.1102L3.01666 5.72887L5.11755 5.5509L6.39909 20.9323C6.44143 21.4643 6.68133 21.9606 7.07083 22.322C7.46032 22.6833 7.97072 22.8831 8.49998 22.8814H14.9413C15.4689 22.8773 15.9761 22.6755 16.3644 22.3153C16.7526 21.9551 16.9942 21.4621 17.0422 20.9323L18.3027 5.5509L20.4036 5.72887L19.1221 21.1102C19.0282 22.1662 18.5483 23.1493 17.7756 23.8682C17.0029 24.5872 15.9926 24.9906 14.9413 25.0001Z" fill="#C9D3D6"/>
<path d="M22.3871 6.69909H1.05044C0.771849 6.69909 0.504664 6.58748 0.307668 6.38882C0.110671 6.19016 0 5.92072 0 5.63977C0 5.35882 0.110671 5.08937 0.307668 4.89071C0.504664 4.69205 0.771849 4.58044 1.05044 4.58044H22.3871C22.6657 4.58044 22.9328 4.69205 23.1298 4.89071C23.3268 5.08937 23.4375 5.35882 23.4375 5.63977C23.4375 5.92072 23.3268 6.19016 23.1298 6.38882C22.9328 6.58748 22.6657 6.69909 22.3871 6.69909Z" fill="#C9D3D6"/>
<path d="M17.3113 6.69915H15.2105V5.63983C15.2093 4.7063 14.8411 3.81132 14.1865 3.15121C13.532 2.49111 12.6445 2.11977 11.7188 2.11864C10.7965 2.13072 9.91528 2.50558 9.26304 3.16333C8.6108 3.82108 8.23908 4.70971 8.22711 5.63983V6.69915H6.12622V5.63983C6.12622 4.14405 6.71544 2.70954 7.76424 1.65187C8.81305 0.594195 10.2355 0 11.7188 0C13.202 0 14.6245 0.594195 15.6733 1.65187C16.7221 2.70954 17.3113 4.14405 17.3113 5.63983V6.69915Z" fill="#C9D3D6"/>
<path d="M13.6809 19.233H13.6094C13.4717 19.2238 13.3372 19.1874 13.2135 19.1258C13.0898 19.0642 12.9793 18.9786 12.8884 18.874C12.7975 18.7693 12.7279 18.6476 12.6836 18.5158C12.6394 18.384 12.6213 18.2447 12.6304 18.1059L13.0506 12C13.069 11.719 13.1973 11.4569 13.4073 11.2714C13.6173 11.0858 13.8918 10.992 14.1704 11.0105C14.449 11.0291 14.7088 11.1585 14.8928 11.3703C15.0768 11.582 15.1699 11.8588 15.1515 12.1398L14.7313 18.2457C14.7122 18.5136 14.5933 18.7643 14.3984 18.9475C14.2036 19.1306 13.9472 19.2326 13.6809 19.233Z" fill="#C9D3D6"/>
<path d="M9.75649 19.233C9.48989 19.2325 9.23345 19.1298 9.03918 18.9457C8.8449 18.7615 8.72731 18.5098 8.71025 18.2415L8.29007 12.1356C8.27168 11.8546 8.36472 11.5778 8.54871 11.366C8.73271 11.1543 8.99259 11.0249 9.27118 11.0063C9.54978 10.9878 9.82427 11.0816 10.0343 11.2672C10.2443 11.4527 10.3726 11.7148 10.391 11.9957L10.8111 18.1017C10.8203 18.2405 10.8022 18.3798 10.7579 18.5116C10.7137 18.6434 10.6441 18.7651 10.5532 18.8698C10.4623 18.9744 10.3518 19.06 10.2281 19.1216C10.1043 19.1832 9.9698 19.2196 9.83212 19.2288L9.75649 19.233Z" fill="#C9D3D6"/>
</svg>
