<svg width="19" height="23" viewBox="0 0 19 23" fill="none" xmlns="http://www.w3.org/2000/svg">
<path d="M14.9286 23H4.07143C2.99193 22.999 1.95695 22.5674 1.19363 21.8C0.430309 21.0326 0.00102662 19.9921 0 18.9068L0 4.09322C0.00102662 3.00795 0.430309 1.96742 1.19363 1.20002C1.95695 0.432612 2.99193 0.00103212 4.07143 0L14.9286 0C16.0081 0.00103212 17.0431 0.432612 17.8064 1.20002C18.5697 1.96742 18.999 3.00795 19 4.09322V18.9068C18.999 19.9921 18.5697 21.0326 17.8064 21.8C17.0431 22.5674 16.0081 22.999 14.9286 23ZM4.07143 1.94915C3.50613 1.95018 2.96428 2.17641 2.56455 2.57827C2.16482 2.98014 1.9398 3.52489 1.93878 4.09322V18.9068C1.9398 19.4751 2.16482 20.0199 2.56455 20.4217C2.96428 20.8236 3.50613 21.0498 4.07143 21.0508H14.9286C15.4939 21.0498 16.0357 20.8236 16.4355 20.4217C16.8352 20.0199 17.0602 19.4751 17.0612 18.9068V4.09322C17.0602 3.52489 16.8352 2.98014 16.4355 2.57827C16.0357 2.17641 15.4939 1.95018 14.9286 1.94915H4.07143Z" fill="white"/>
<path d="M13.8739 17.8659H4.56778C4.31068 17.8659 4.06411 17.7632 3.88232 17.5805C3.70052 17.3977 3.59839 17.1498 3.59839 16.8913C3.59839 16.6329 3.70052 16.385 3.88232 16.2022C4.06411 16.0194 4.31068 15.9167 4.56778 15.9167H13.8739C14.131 15.9167 14.3776 16.0194 14.5594 16.2022C14.7412 16.385 14.8433 16.6329 14.8433 16.8913C14.8433 17.1498 14.7412 17.3977 14.5594 17.5805C14.3776 17.7632 14.131 17.8659 13.8739 17.8659Z" fill="white"/>
<path d="M8.44533 7.47308H4.56778C4.31068 7.47308 4.06411 7.3704 3.88232 7.18763C3.70052 7.00486 3.59839 6.75698 3.59839 6.4985C3.59839 6.24003 3.70052 5.99214 3.88232 5.80937C4.06411 5.6266 4.31068 5.52393 4.56778 5.52393H8.44533C8.70243 5.52393 8.94899 5.6266 9.13079 5.80937C9.31258 5.99214 9.41471 6.24003 9.41471 6.4985C9.41471 6.75698 9.31258 7.00486 9.13079 7.18763C8.94899 7.3704 8.70243 7.47308 8.44533 7.47308Z" fill="white"/>
<path d="M8.44533 12.6695H4.56778C4.31068 12.6695 4.06411 12.5668 3.88232 12.384C3.70052 12.2013 3.59839 11.9534 3.59839 11.6949C3.59839 11.4364 3.70052 11.1886 3.88232 11.0058C4.06411 10.823 4.31068 10.7203 4.56778 10.7203H8.44533C8.70243 10.7203 8.94899 10.823 9.13079 11.0058C9.31258 11.1886 9.41471 11.4364 9.41471 11.6949C9.41471 11.9534 9.31258 12.2013 9.13079 12.384C8.94899 12.5668 8.70243 12.6695 8.44533 12.6695Z" fill="white"/>
<path d="M13.0364 13.0086H11.9507C11.6936 13.0086 11.4471 12.906 11.2653 12.7232C11.0835 12.5404 10.9813 12.2925 10.9813 12.0341C10.9813 11.7756 11.0835 11.5277 11.2653 11.3449C11.4471 11.1622 11.6936 11.0595 11.9507 11.0595H13.0364C13.1496 11.0595 13.2581 11.0143 13.3381 10.9339C13.418 10.8535 13.463 10.7444 13.463 10.6307C13.463 10.5169 13.418 10.4079 13.3381 10.3274C13.2581 10.247 13.1496 10.2019 13.0364 10.2019C12.4091 10.2019 11.8075 9.95132 11.3639 9.50536C10.9203 9.05941 10.6711 8.45456 10.6711 7.82389C10.6711 7.19321 10.9203 6.58837 11.3639 6.14241C11.8075 5.69646 12.4091 5.44592 13.0364 5.44592H14.1222C14.3793 5.44592 14.6258 5.5486 14.8076 5.73137C14.9894 5.91414 15.0916 6.16202 15.0916 6.4205C15.0916 6.67897 14.9894 6.92686 14.8076 7.10963C14.6258 7.2924 14.3793 7.39507 14.1222 7.39507H13.0364C12.9233 7.39507 12.8148 7.44025 12.7348 7.52067C12.6549 7.60109 12.6099 7.71016 12.6099 7.82389C12.6099 7.93762 12.6549 8.04669 12.7348 8.12711C12.8148 8.20752 12.9233 8.2527 13.0364 8.2527C13.6638 8.2527 14.2654 8.50324 14.709 8.94919C15.1526 9.39515 15.4018 9.99999 15.4018 10.6307C15.4018 11.2613 15.1526 11.8662 14.709 12.3121C14.2654 12.7581 13.6638 13.0086 13.0364 13.0086Z" fill="white"/>
<path d="M13.0363 7.40677C12.7792 7.40677 12.5326 7.30409 12.3508 7.12132C12.169 6.93855 12.0669 6.69066 12.0669 6.43219V5.34066C12.0669 5.08219 12.169 4.8343 12.3508 4.65154C12.5326 4.46877 12.7792 4.36609 13.0363 4.36609C13.2934 4.36609 13.5399 4.46877 13.7217 4.65154C13.9035 4.8343 14.0057 5.08219 14.0057 5.34066V6.43219C14.0057 6.69066 13.9035 6.93855 13.7217 7.12132C13.5399 7.30409 13.2934 7.40677 13.0363 7.40677Z" fill="white"/>
<path d="M13.0363 14.1001C12.7792 14.1001 12.5326 13.9974 12.3508 13.8147C12.169 13.6319 12.0669 13.384 12.0669 13.1256V12.034C12.0669 11.7756 12.169 11.5277 12.3508 11.3449C12.5326 11.1621 12.7792 11.0594 13.0363 11.0594C13.2934 11.0594 13.5399 11.1621 13.7217 11.3449C13.9035 11.5277 14.0057 11.7756 14.0057 12.034V13.1256C14.0057 13.384 13.9035 13.6319 13.7217 13.8147C13.5399 13.9974 13.2934 14.1001 13.0363 14.1001Z" fill="white"/>
</svg>
