<svg xmlns="http://www.w3.org/2000/svg" width="18.438" height="18.438" viewBox="0 0 18.438 18.438">
  <path fill="#9d9d9d" d="M16.2,0H2.233A2.233,2.233,0,0,0,0,2.233V16.2a2.233,2.233,0,0,0,2.233,2.233H16.2A2.233,2.233,0,0,0,18.438,16.2V2.233A2.233,2.233,0,0,0,16.2,0Zm1.276,15.558a1.922,1.922,0,0,1-1.922,1.922H2.88A1.922,1.922,0,0,1,.957,15.558V2.88A1.922,1.922,0,0,1,2.88.957H15.558A1.922,1.922,0,0,1,17.481,2.88Z"/>
  <g transform="translate(2.213 2.213)">
    <path fill="#9d9d9d" d="M306.465,234.107a1.263,1.263,0,0,0-1.457.8,2.351,2.351,0,0,0-.042,1.572,1.212,1.212,0,0,0,1.535.845c.091-.02.09-.023.09-.119v-2.946C306.59,234.134,306.591,234.132,306.465,234.107Z" transform="translate(-296.085 -227.865)"/>
    <path fill="#9d9d9d" d="M73.534,61.444H63.366a1.922,1.922,0,0,0-1.922,1.922V73.534a1.922,1.922,0,0,0,1.922,1.922H73.534a1.922,1.922,0,0,0,1.922-1.922V63.366A1.922,1.922,0,0,0,73.534,61.444Zm-4.895,10.4c-.327,0-.653,0-.98,0a.2.2,0,0,1-.207-.128q-.594-1.241-1.195-2.478l-.036-.072-.034.071q-.578,1.238-1.155,2.476a.187.187,0,0,1-.2.124c-.316-.006-.632,0-.948,0-.114,0-.123-.016-.071-.114q.852-1.623,1.705-3.246a.1.1,0,0,0,0-.106q-.825-1.641-1.648-3.283c-.043-.086-.029-.11.066-.11.344,0,.687,0,1.031,0a.145.145,0,0,1,.152.1q.571,1.231,1.146,2.459l.038.079.037-.08q.562-1.221,1.123-2.442a.177.177,0,0,1,.186-.118c.312.005.624,0,.935,0,.094,0,.107.022.064.106q-.821,1.586-1.643,3.171a.133.133,0,0,0,0,.14q.863,1.653,1.724,3.308C68.8,71.824,68.787,71.843,68.64,71.843Zm4.4-.272a3.706,3.706,0,0,1-1,.31,3.329,3.329,0,0,1-1.2,0,2.006,2.006,0,0,1-1.6-1.383,3.142,3.142,0,0,1,.037-2.27,2.324,2.324,0,0,1,1.837-1.466,3.417,3.417,0,0,1,.754-.036h.072v-.089q0-.767,0-1.533c0-.114.008-.122.124-.122h.884c.124,0,.124,0,.124.121q0,2.815,0,5.631c0,.248.017.5.03.743C73.116,71.527,73.087,71.55,73.044,71.571Z" transform="translate(-61.444 -61.444)"/>
  </g>
</svg>
