<svg xmlns="http://www.w3.org/2000/svg" width="18.088" height="19.169" viewBox="0 0 18.088 19.169">
  <path fill="#9d9d9d" d="M1688.3,231.607q-4.439-1.512-8.879-3.023a.463.463,0,0,0-.282,0q-4.226,1.5-8.448,3c-.357.127-.356.128-.329.51,0,.012,0,.023,0,.035q.094.827.188,1.655c.077.662.156,1.323.233,1.985s.147,1.313.223,1.969c.078.673.158,1.347.236,2.02.063.546.123,1.092.186,1.637.077.662.161,1.323.23,1.985a.287.287,0,0,0,.163.258q3.648,2.016,7.291,4.04a.269.269,0,0,0,.3.006q3.7-2.057,7.408-4.108a.335.335,0,0,0,.15-.208c.051-.317.08-.638.12-.957q.111-.9.224-1.792.116-.922.232-1.843.114-.9.226-1.809t.231-1.826q.115-.913.228-1.827c.064-.51.129-1.02.2-1.552C1688.467,231.673,1688.4,231.639,1688.3,231.607Zm-5.6,10.524a3.98,3.98,0,0,1-2.734,1.614,5.215,5.215,0,0,1-.672.045,3.948,3.948,0,0,1-2.237-.661,3.865,3.865,0,0,1-1.789-2.871,6.611,6.611,0,0,1-.042-.74c0-1.639,0-3.3,0-4.915v-1.33a.49.49,0,0,1,.583-.582h1.091a.581.581,0,0,1,.452.131.574.574,0,0,1,.134.453q0,.8,0,1.606c0,1.364,0,2.775.005,4.162a6.054,6.054,0,0,0,.1,1.2,1.652,1.652,0,0,0,1.768,1.383h.022a1.72,1.72,0,0,0,1.8-1.685c.025-.307.038-.617.039-.92,0-2.229,0-4.056,0-5.751a.6.6,0,0,1,.149-.434.55.55,0,0,1,.4-.147h.04c.132,0,.276.007.453.007h.66c.051,0,.1,0,.151.006l.074,0,.337.015s0,1.749,0,2.354c0,1.475,0,3,0,4.5A4.065,4.065,0,0,1,1682.708,242.131Z" transform="translate(-1670.355 -228.563)"/>
</svg>
