<svg xmlns="http://www.w3.org/2000/svg" width="16.589" height="18.564" viewBox="0 0 16.589 18.564">
  <path fill="#9d9d9d" d="M1456.665-191.393a4.469,4.469,0,0,0-2.6-3.329,4.434,4.434,0,0,0,.883-.912,4.658,4.658,0,0,0,.724-3.605,4.938,4.938,0,0,0-2.167-3.244,7.815,7.815,0,0,0-4.218-1.1c-1.046-.009-2.188-.013-3.594-.013l-2.271,0-2.269,0h-.051c-.073,0-.138,0-.195.009l-.063,0-.693.038v3.884h2.017v10.624h-2.018v3.859l.608.106.026.005a1.043,1.043,0,0,0,.226.027h.308l2.21,0,2.212,0c1.729,0,3.055-.006,4.3-.02a8.591,8.591,0,0,0,3.956-.944,5.012,5.012,0,0,0,2.3-2.358A5.332,5.332,0,0,0,1456.665-191.393Zm-5.152-6.692a1.087,1.087,0,0,1-.636,1.165,4.6,4.6,0,0,1-1.526.4c-.453.03-.942.044-1.584.044-.273,0-.545,0-.818,0l-.509,0v-3.177l.516,0c.278,0,.555-.005.833-.005.6,0,1.057.013,1.485.041a5.059,5.059,0,0,1,1.586.39C1451.135-199.127,1451.5-198.882,1451.512-198.085Zm-4.491,9.02-.574,0v-3.483h.25c.318,0,.638-.005.947-.011s.612-.01.914-.01a10.648,10.648,0,0,1,2.4.218,3.5,3.5,0,0,1,.785.293,1.3,1.3,0,0,1,.759,1.321,1.222,1.222,0,0,1-.77,1.237,4.83,4.83,0,0,1-1.573.41c-.542.024-1.132.036-1.859.036C1447.873-189.058,1447.44-189.062,1447.021-189.065Z" transform="translate(-1440.146 203.597)"/>
</svg>
