<svg xmlns="http://www.w3.org/2000/svg" width="18.468" height="16.439" viewBox="0 0 18.468 16.439">
  <path fill="#9d9d9d" d="M22.974,17.083l-3.638-6.3a2.842,2.842,0,0,0-.343-.521,1.662,1.662,0,0,0-1.232-.549h-7.3a3.037,3.037,0,0,0-.576.029,1.666,1.666,0,0,0-1.132.8L5.1,16.865c-.054.1-.111.189-.163.285a1.67,1.67,0,0,0-.2.748v.064a1.681,1.681,0,0,0,.234.817q1.888,3.27,3.776,6.539a1.666,1.666,0,0,0,1.182.81,3.88,3.88,0,0,0,.562.02h7.016a2.864,2.864,0,0,0,.558-.029,1.664,1.664,0,0,0,1.131-.8l3.777-6.54a1.7,1.7,0,0,0,.233-.8v-.094A1.7,1.7,0,0,0,22.974,17.083ZM10.712,22.226q-.891-.888-1.78-1.779,0-2.517,0-5.034c.594-.592,1.185-1.187,1.78-1.778.3.3.6.591.888.891-.439.436-.876.876-1.314,1.313-.029.022-.015.063-.019.095,0,1.358,0,2.715,0,4.072.3.3.6.6.9.9.143.147.295.286.432.438C11.3,21.633,11.008,21.931,10.712,22.226Zm1.573-3.7a.63.63,0,0,1-.554-1.117.622.622,0,0,1,.233-.1.63.63,0,0,1,.321,1.216Zm1.811.02a.63.63,0,1,1,.5-.74A.633.633,0,0,1,14.1,18.548Zm1.914-.006a.63.63,0,1,1,.462-.759A.633.633,0,0,1,16.01,18.542Zm3,1.9q-.888.891-1.78,1.78l-.888-.888Q17,20.67,17.67,20.005q0-2.075,0-4.15Q17,15.19,16.338,14.524q.444-.445.889-.889.891.89,1.78,1.781Q19,17.931,19.007,20.445Z" transform="translate(-4.739 -9.71)"/>
</svg>
