<svg xmlns="http://www.w3.org/2000/svg" width="17.005" height="17.006" viewBox="0 0 17.005 17.006">
  <path d="M65.705,60.543,58.809,52l8.544,6.9a1.172,1.172,0,0,1-1.472,1.823A1.242,1.242,0,0,1,65.705,60.543Z" transform="translate(-58.339 -51.527)"/>
  <path d="M54.842,50.829a8.449,8.449,0,0,0-.418,1.318,7.543,7.543,0,0,0-.2,1.337,7.812,7.812,0,0,0,.287,2.6,7.282,7.282,0,0,0,2.87,4.006,6.947,6.947,0,0,0,4.577,1.2,6.764,6.764,0,0,0,2.28-.617A6.82,6.82,0,0,0,67.515,57.4a6.719,6.719,0,0,0,.615-2.279,6.959,6.959,0,0,0-.2-2.377,7.094,7.094,0,0,0-1.006-2.2,7.283,7.283,0,0,0-4-2.869,7.813,7.813,0,0,0-2.6-.288,7.506,7.506,0,0,0-1.337.194A8.4,8.4,0,0,0,57.669,48a7.485,7.485,0,0,1,5.478-1.446,8,8,0,0,1,2.865.927,8.32,8.32,0,0,1,2.369,1.949,8.484,8.484,0,0,1,1.954,5.835,8.7,8.7,0,0,1-.725,3.085A8.681,8.681,0,0,1,65.19,62.77a8.658,8.658,0,0,1-3.084.723,8.48,8.48,0,0,1-5.833-1.954,7.781,7.781,0,0,1-.574-.528c-.047-.048-.1-.1-.134-.139l-.128-.139q-.129-.143-.251-.292A8.075,8.075,0,0,1,53.4,56.307,7.489,7.489,0,0,1,54.842,50.829Z" transform="translate(-53.34 -46.497)"/>
</svg>
