<svg xmlns="http://www.w3.org/2000/svg" width="13.763" height="19.055" viewBox="0 0 13.763 19.055">
  <g transform="translate(-498.065 -128)">
    <path fill="#9d9d9d" d="M504.689,247.99c-.6-.319-1.2-.627-1.8-.958-1.547-.864-3.089-1.738-4.633-2.608l-.193-.111c.04-.047.071-.089.108-.126q5.541-5.578,11.082-11.156a.478.478,0,0,1,.513-.172.467.467,0,0,1,.307.427q.431,2.7.866,5.4.438,2.725.879,5.45a.211.211,0,0,1-.122.264q-3.063,1.7-6.121,3.412a4.009,4.009,0,0,1-.442.183Z" transform="translate(0 -100.935)"/>
    <path fill="#9d9d9d" d="M512.858,128a1.857,1.857,0,0,1,.319.343c.637,1.176,1.262,2.36,1.894,3.538a.245.245,0,0,1,0,.271q-2.26,4.038-4.514,8.08a.285.285,0,0,1-.1.112q.129-.841.259-1.682.382-2.451.764-4.9.415-2.672.826-5.344a.516.516,0,0,1,.33-.414Z" transform="translate(-11.929)"/>
    <path fill="#9d9d9d" d="M513.469,202.84l-8.421,8.472-.031-.017a1,1,0,0,1,.047-.116q3.087-5.533,6.177-11.066a.424.424,0,0,1,.773-.045C512.506,200.986,512.982,201.91,513.469,202.84Z" transform="translate(-6.693 -69.166)"/>
  </g>
</svg>
