<svg xmlns="http://www.w3.org/2000/svg" width="23.084" height="18.564" viewBox="0 0 23.084 18.564">
  <g transform="translate(2.959)">
    <path fill="#9d9d9d"  d="M1564.347,115.2a9.131,9.131,0,0,1,3.492-.254,9.027,9.027,0,0,1,4.89,2.21q-1.43,1.428-2.858,2.857a4.99,4.99,0,0,0-3.69-1.076,4.288,4.288,0,0,0-3,1.2,6.532,6.532,0,0,0-5.027,1.018,7.467,7.467,0,0,1,2.075-3.5A9.009,9.009,0,0,1,1564.347,115.2Z" transform="translate(-1558.157 -114.885)"/>
  </g>
  <g transform="translate(11.726 2.501)">
    <path fill="#9d9d9d" d="M1734.7,167.21q1.429-1.428,2.858-2.857a8.035,8.035,0,0,1,2.5,4.17,6.526,6.526,0,0,1-3.108,11.868c-.336.035-.673.018-1.009.022-1.535,0-2.882,0-4.416,0,0-1.341,0-2.682,0-4.022h4.214a5.082,5.082,0,0,0,1.2-.071,2.516,2.516,0,0,0,1.633-1.29,2.489,2.489,0,0,0-.093-2.446,2.55,2.55,0,0,0-2.137-1.2,5.823,5.823,0,0,0-.227-2A4.038,4.038,0,0,0,1734.7,167.21Z" transform="translate(-1731.53 -164.353)"/>
  </g>
  <g transform="translate(0 5.514)">
    <path fill="#9d9d9d" d="M1502.458,225.075a6.522,6.522,0,0,1,8.906,1.435q-1.457,1.461-2.918,2.919a2.577,2.577,0,0,0-.828-1.009,2.48,2.48,0,0,0-2.061-.4,2.5,2.5,0,0,0-1.769,3.206,2.191,2.191,0,0,0,1.265,1.388q-1.458,1.466-2.924,2.925a6.109,6.109,0,0,1-2.167-3.058,6.525,6.525,0,0,1,2.5-7.41Z" transform="translate(-1499.636 -223.921)"/>
  </g>
  <g transform="translate(2.687 14.418)">
    <path fill="#9d9d9d" d="M1555.7,400.013a1.957,1.957,0,0,0,.924.124h4.8c0,1.341,0,2.681,0,4.022-1.516,0-2.829,0-4.346,0a10.674,10.674,0,0,1-1.116-.028,6.079,6.079,0,0,1-3.186-1.191Q1554.238,401.476,1555.7,400.013Z" transform="translate(-1552.776 -400.013)"/>
  </g>
</svg>
