<svg xmlns="http://www.w3.org/2000/svg" width="17.716" height="19.001" viewBox="0 0 17.716 19.001">
  <path fill="#9d9d9d" d="M52.877,11.013V11l-.019.007L52.839,11v.013L44,14.081l1.271,11.777,7.568,4.122V30l.019-.01.019.01v-.021l7.568-4.122,1.271-11.777Zm5.983,11.5a5.556,5.556,0,0,1-5.254,3.63,6.4,6.4,0,0,1-4.06-1.481,6,6,0,0,1-2.089-2.977c-.606-.662-.612-.733-.675-1s.039-.338.217-.6a.972.972,0,0,0,.085-.74,1.866,1.866,0,0,1-.261-.983.964.964,0,0,1,.432-.682,2.216,2.216,0,0,0,.528-.55,2.629,2.629,0,0,0,.057-.9q0-.781.867-.85a2.475,2.475,0,0,0,1.637-1.022,1.038,1.038,0,0,1,.793-.3,1.668,1.668,0,0,1,1.292.541,5.261,5.261,0,0,1,2.868.751q2.072,1.231,2.262,2.661-.222,1.88-5.043-.1a2.962,2.962,0,0,0-2.479,3.094,3.3,3.3,0,0,0,2.11,3.174c-.685-.673-.977-1.238-.879-1.707a4.688,4.688,0,0,0,4.868,1.893,2.294,2.294,0,0,1-1.915-.778,5.027,5.027,0,0,0,3.483-1.718,2.432,2.432,0,0,1-1.99.573q2.84-2.233,2.01-5.209l0-.006A2.631,2.631,0,0,1,58.411,19a3.934,3.934,0,0,1-.693,2.158,5.6,5.6,0,0,0,1.23-1.783,4.009,4.009,0,0,1-2.242,4.2A4.807,4.807,0,0,0,58.86,22.51Z" transform="translate(-44 -11)"/>
  <circle cx="0.278" cy="0.278" r="0.278" transform="translate(9.926 5.885) rotate(-67.5)" />
</svg>
