<svg xmlns="http://www.w3.org/2000/svg" width="17.856" height="19.383" viewBox="0 0 17.856 19.383">
  <path fill="#9d9d9d" d="M1277.787,129.48c.232-.214.438-.387.625-.579s.355-.4.551-.626c.387.211.78.427,1.173.64.264.142.53.389.8.39s.533-.244.8-.388q3.146-1.715,6.293-3.428a.356.356,0,0,0,.22-.365q-.011-3.659,0-7.318a.357.357,0,0,0-.22-.365q-3.452-1.873-6.895-3.762a.353.353,0,0,0-.388,0q-3.444,1.887-6.895,3.761a.357.357,0,0,0-.214.369q.009,3.659,0,7.318a.339.339,0,0,0,.2.351c.678.359,1.349.732,2.022,1.1.062.034.126.062.2.1a2.8,2.8,0,0,0,.831-2.084q0-3.433,0-6.867v-.3h1.621v.269c0,2.281-.007,4.562,0,6.843a4.523,4.523,0,0,1-1.4,3.386c-.254.249-.5.509-.751.771l-1.372-.747c-.924-.5-1.846-1.009-2.772-1.509a.324.324,0,0,1-.205-.326q.009-4.657,0-9.314a.306.306,0,0,1,.193-.309q4.283-2.33,8.561-4.671a.318.318,0,0,1,.348,0q4.288,2.347,8.581,4.683a.289.289,0,0,1,.173.3q-.006,4.657,0,9.314a.305.305,0,0,1-.181.315q-4.295,2.334-8.585,4.676a.325.325,0,0,1-.256.032C1279.842,130.6,1278.851,130.061,1277.787,129.48Z" transform="translate(-1272.005 -111.77)"/>
  <path fill="#9d9d9d" d="M1449.035,231.837H1444.2v1.618h.251q1.461,0,2.921,0a1.612,1.612,0,0,1,1.682,1.668q.007.76,0,1.52a1.6,1.6,0,0,1-1.677,1.672c-1.069,0-2.137.007-3.206,0a1.6,1.6,0,0,1-1.586-1.364,2.538,2.538,0,0,1-.016-.255h4.844v-1.62h-.247q-1.461,0-2.921,0a1.612,1.612,0,0,1-1.677-1.672c0-.523,0-1.045,0-1.568a1.6,1.6,0,0,1,1.585-1.617q1.662-.017,3.324,0A1.572,1.572,0,0,1,1449.035,231.837Z" transform="translate(-1434.452 -224.57)"/>
</svg>
