<svg xmlns="http://www.w3.org/2000/svg" width="17.544" height="17.544" viewBox="0 0 17.544 17.544">
  <g>
    <g>
      <path d="M0,0V17.544H17.544V0ZM16.516,16.516H1.028V1.028H16.516Z"/>
    </g>
  </g>
  <g transform="translate(5.962 7.218)">
    <g>
      <path d="M175.248,210.64h-1.266v1.892H175.3c.4,0,.732-.371.732-.946A.859.859,0,0,0,175.248,210.64Z" transform="translate(-173.982 -210.64)"/>
    </g>
  </g>
  <g transform="translate(2.056 2.056)">
    <g>
      <path d="M60,60V73.432H73.432V60Zm5.287,8.048H63.906v1.957H62.771V64.167h2.475A1.94,1.94,0,0,1,67.1,66.108,1.885,1.885,0,0,1,65.287,68.048Zm4.128,2.04a3.1,3.1,0,0,1-1.949-.666l.411-.691a2.831,2.831,0,0,0,1.513.567c.418,0,.707-.175.707-.477,0-.371-.611-.491-.946-.584-.28-.077-1.538-.254-1.538-1.2a1.516,1.516,0,0,1,1.694-1.423,2.4,2.4,0,0,1,1.686.592l-.444.666A2.23,2.23,0,0,0,69.3,66.4c-.4,0-.658.171-.658.485,0,.392.688.5.847.543.3.077,1.669.286,1.669,1.3C71.159,69.92,69.953,70.088,69.416,70.088Z" transform="translate(-60 -60)"/>
    </g>
  </g>
</svg>
