<svg xmlns="http://www.w3.org/2000/svg" width="18.73" height="17.57" viewBox="0 0 18.73 17.57">
  <path d="M69.182,70.049l.008-.02.008-.02.006-.019.007-.022,0-.019.005-.023,0-.019c0-.008,0-.015,0-.023s0-.013,0-.019,0-.015,0-.022,0-.013,0-.02,0-.015,0-.022,0-.014,0-.021,0-.014,0-.021,0-.014,0-.021,0-.014,0-.021l0-.021,0-.021,0-.02-.006-.022-.006-.019-.008-.022-.007-.018-.01-.023-.005-.013,0,0-.011-.022-.009-.017-.012-.019-.011-.018v0L65.85,64.536l0,0-.015-.02-.016-.022-.015-.017-.019-.021-.016-.016-.021-.02-.017-.015-.022-.017-.019-.014-.022-.015-.021-.013-.023-.012L65.6,64.32l-.024-.011-.022-.009-.03-.01-.019-.006-.05-.012h0l-5.469-1.027-.033,0-.02,0a.61.61,0,0,0-.122,0l-.02,0-.033,0-5.469,1.027h0l-.05.012-.019.006-.029.01-.023.009-.024.01-.023.011-.023.012-.021.013-.022.015-.019.014-.022.017-.017.014-.021.02-.015.015-.02.022-.014.017-.017.022-.014.019,0,0-3.281,4.922v0l-.01.016-.013.021-.008.015-.012.024,0,0,0,.012-.01.024-.006.017-.008.023-.005.018-.006.023,0,.019,0,.022,0,.02c0,.007,0,.015,0,.022s0,.013,0,.02,0,.015,0,.023,0,.013,0,.019,0,.015,0,.023,0,.013,0,.019,0,.016,0,.024,0,.012,0,.018,0,.016,0,.024l0,.017c0,.008,0,.016.006.024l0,.017.008.024.006.017.009.022.007.017.01.021.009.018v0l.012.02.009.015.022.033v0l.027.035h0L59.4,80.586l0,0q.018.021.037.04l.008.008c.014.013.029.026.044.037l.01.008c.016.011.031.023.048.033h0c.017.01.034.019.052.028l.012.005c.018.008.035.015.054.021l.009,0,.052.014.009,0,.058.01h.013c.02,0,.04,0,.06,0s.04,0,.06,0h.013l.058-.01.009,0,.052-.014.009,0c.018-.006.036-.014.054-.021l.012-.005c.018-.008.035-.017.052-.028h0c.016-.01.032-.021.048-.033l.01-.008c.015-.012.03-.024.044-.038l.008-.008c.013-.013.026-.026.038-.04l0,0L69.09,70.2h0l.027-.034,0-.006.02-.03.011-.019.01-.017v0l.01-.021Zm-13.762.365h8.9l-4.45,8.454Zm8.517-1.23H55.8l4.067-4.425Zm-8.921-.963V65.388l3.148-.591Zm12.454.963H65.954V66.909Zm-2.747-.963L61.575,64.8l3.148.591ZM53.786,66.909v2.275H52.269Zm.244,3.505,2.646,5.027-4.233-5.027Zm9.035,5.027,2.646-5.027H67.3Z" transform="translate(-50.505 -63.235)"/>
</svg>
