<svg xmlns="http://www.w3.org/2000/svg" width="201.105" height="34.286" viewBox="0 0 201.105 34.286">
  <path d="M-2991.6,27.706c-.369-.309-.712-.622-1.057-.973-.086-.088-.181-.183-.247-.257l-.236-.256c-.157-.176-.313-.355-.462-.538a14.627,14.627,0,0,1-1.585-2.339,14.715,14.715,0,0,1-1.707-5.275,13.8,13.8,0,0,1,2.658-10.09,15.646,15.646,0,0,0-.769,2.428,13.815,13.815,0,0,0-.359,2.462,14.368,14.368,0,0,0,.528,4.792,13.41,13.41,0,0,0,5.286,7.38,12.927,12.927,0,0,0,4.049,1.854,12.844,12.844,0,0,0,4.381.359,12.441,12.441,0,0,0,4.2-1.136,12.21,12.21,0,0,0,3.542-2.488,12.181,12.181,0,0,0,2.486-3.543,12.382,12.382,0,0,0,1.134-4.2,12.828,12.828,0,0,0-.36-4.378,12.238,12.238,0,0,0-.749-2.094,12.357,12.357,0,0,0-1.1-1.954,13.409,13.409,0,0,0-7.375-5.285,14.4,14.4,0,0,0-4.791-.531A13.907,13.907,0,0,0-2986.6,2a15.64,15.64,0,0,0-2.43.768A13.787,13.787,0,0,1-2978.934.109a14.748,14.748,0,0,1,5.277,1.706,15.337,15.337,0,0,1,4.363,3.589,15.622,15.622,0,0,1,3.6,10.749,16.013,16.013,0,0,1-1.334,5.682,16.216,16.216,0,0,1-3.314,4.828,16.187,16.187,0,0,1-4.828,3.311,15.952,15.952,0,0,1-5.681,1.332q-.375.019-.75.019A15.612,15.612,0,0,1-2991.6,27.706Zm68.07-5.351,1.4-2.033a6.323,6.323,0,0,0,3.974,1.613c1.075.023,2.081-.537,2.081-1.38,0-.795-.654-1.121-2.29-1.215-2.174-.164-4.768-.958-4.768-3.577,0-2.665,2.758-3.6,4.862-3.6a6.189,6.189,0,0,1,4.488,1.519l-1.59,1.869a3.884,3.884,0,0,0-2.851-1.028c-1.356,0-2.1.42-2.1,1.145,0,.748.678,1.169,2.151,1.263,2.174.14,4.932.631,4.932,3.693,0,2.034-1.66,3.787-4.955,3.787A6.743,6.743,0,0,1-2923.528,22.355Zm49.288-4.113c0-3.974,2.641-6.054,6.007-6.031a4.233,4.233,0,0,1,3.67,1.869l.094-1.589h2.734V24.015h-2.687l-.14-1.683a4.379,4.379,0,0,1-3.74,2.034h-.056C-2871.743,24.366-2874.24,22.264-2874.24,18.242Zm2.852,0a3.3,3.3,0,0,0,3.413,3.506c4.487,0,4.487-6.989,0-6.989A3.282,3.282,0,0,0-2871.388,18.241Zm-65.252,0c0-3.974,2.642-6.054,6.008-6.031a4.232,4.232,0,0,1,3.67,1.869l.094-1.589h2.734V24.015h-2.687l-.14-1.683a4.379,4.379,0,0,1-3.74,2.034h-.056C-2934.142,24.366-2936.64,22.264-2936.64,18.242Zm2.852,0a3.3,3.3,0,0,0,3.413,3.506c4.487,0,4.487-6.989,0-6.989A3.282,3.282,0,0,0-2933.788,18.241Zm81.727,0c0-3.973,2.5-6.03,5.868-6.03a4.772,4.772,0,0,1,3.786,1.846V7.676h2.851V24.015h-2.664l-.187-1.589a4.2,4.2,0,0,1-3.717,1.847A5.655,5.655,0,0,1-2852.061,18.241Zm2.852,0a3.238,3.238,0,0,0,3.272,3.389,3.266,3.266,0,0,0,3.343-3.389,3.289,3.289,0,0,0-3.343-3.366A3.179,3.179,0,0,0-2849.208,18.241Zm-37.744.023a5.769,5.769,0,0,1,5.962-6.008,5.826,5.826,0,0,1,6.031,6.008,5.754,5.754,0,0,1-6.008,6.007A5.735,5.735,0,0,1-2886.953,18.265Zm2.852,0a3.122,3.122,0,0,0,3.133,3.389,3.121,3.121,0,0,0,3.132-3.389,3.254,3.254,0,0,0-3.132-3.413A3.167,3.167,0,0,0-2884.1,18.265Zm-13.225,4.161-.187,1.589h-2.665V7.676h2.852v6.381a4.77,4.77,0,0,1,3.786-1.846c3.366,0,5.867,2.056,5.867,6.03a5.655,5.655,0,0,1-5.937,6.031A4.194,4.194,0,0,1-2897.326,22.425Zm.186-4.184a3.266,3.266,0,0,0,3.343,3.389,3.238,3.238,0,0,0,3.272-3.389,3.179,3.179,0,0,0-3.272-3.366A3.289,3.289,0,0,0-2897.14,18.241Zm74.272.866V12.444h1.146v6.638c0,2.618,1.613,4.021,4.114,4a4.013,4.013,0,0,0,4.044-4.207V12.444h1.146V24.016h-1.122V21.935a4.6,4.6,0,0,1-4.114,2.268C-2820.74,24.2-2822.867,22.309-2822.867,19.107Zm13.416,2.36v2.548h-1.122V7.653h1.122v7.339a5.112,5.112,0,0,1,4.792-2.712,5.564,5.564,0,0,1,5.8,5.961c0,3.834-2.548,5.961-5.774,5.961A5.437,5.437,0,0,1-2809.451,21.467Zm.022-3.249a4.618,4.618,0,0,0,4.722,4.863,4.483,4.483,0,0,0,4.721-4.839,4.477,4.477,0,0,0-4.721-4.862A4.625,4.625,0,0,0-2809.428,18.218Zm-51.069,5.8V12.491h2.642l.21,1.333a3.4,3.4,0,0,1,3.249-1.637,4.373,4.373,0,0,1,2.968,1.1l-1.285,2.479a2.848,2.848,0,0,0-2.057-.749,2.659,2.659,0,0,0-2.875,2.922v6.078Zm-52.092,0V7.653h2.852v6.4a4.255,4.255,0,0,1,3.6-1.73c3.272,0,4.722,2.221,4.722,5.611v6.077h-2.852V17.961c0-2.1-1.1-2.992-2.618-2.992a2.955,2.955,0,0,0-2.852,3.156v5.89Zm86.614,0V16.582H-2836.4v7.433h-1.263V7.653h1.263v7.783h10.425V7.653h1.263V24.015Zm-125.853,0V7.653h6.428c5.61,0,8.111,4,8.181,8.041.07,4.138-2.454,8.321-8.181,8.321Zm3.062-2.968h3.366c3.716,0,5.188-2.712,5.118-5.377-.069-2.548-1.566-5.1-5.118-5.1h-3.366Zm-34.342-4.115a2.348,2.348,0,0,1-.324-.324L-2996.135.87l15.738,12.7a2.159,2.159,0,0,1,.324,3.035,2.156,2.156,0,0,1-1.681.8A2.149,2.149,0,0,1-2983.109,16.932Z" transform="translate(2999.467 2.462)"/>
</svg>
