<svg width="26" height="26" viewBox="0 0 26 26" fill="none" xmlns="http://www.w3.org/2000/svg">
<path d="M21.3729 26H4.62712C3.40029 25.9989 2.22404 25.511 1.35654 24.6435C0.48904 23.776 0.00116674 22.5997 0 21.3729L0 13.4407C0.00116674 12.2139 0.48904 11.0376 1.35654 10.1701C2.22404 9.30264 3.40029 8.81477 4.62712 8.8136H21.3729C22.5997 8.81477 23.776 9.30264 24.6435 10.1701C25.511 11.0376 25.9988 12.2139 26 13.4407V21.3729C25.9988 22.5997 25.511 23.776 24.6435 24.6435C23.776 25.511 22.5997 25.9989 21.3729 26ZM4.62712 11.017C3.98466 11.0182 3.36886 11.2739 2.91457 11.7282C2.46029 12.1825 2.20455 12.7983 2.20339 13.4407V21.3729C2.20455 22.0154 2.46029 22.6312 2.91457 23.0855C3.36886 23.5398 3.98466 23.7955 4.62712 23.7966H21.3729C22.0153 23.7955 22.6311 23.5398 23.0854 23.0855C23.5397 22.6312 23.7954 22.0154 23.7966 21.3729V13.4407C23.7954 12.7983 23.5397 12.1825 23.0854 11.7282C22.6311 11.2739 22.0153 11.0182 21.3729 11.017H4.62712Z" fill="white"/>
<path d="M21.8135 6.61013H4.18641C3.89422 6.61013 3.614 6.49406 3.4074 6.28745C3.20079 6.08084 3.08472 5.80062 3.08472 5.50843C3.08472 5.21625 3.20079 4.93603 3.4074 4.72942C3.614 4.52281 3.89422 4.40674 4.18641 4.40674H21.8135C22.1057 4.40674 22.3859 4.52281 22.5926 4.72942C22.7992 4.93603 22.9152 5.21625 22.9152 5.50843C22.9152 5.80062 22.7992 6.08084 22.5926 6.28745C22.3859 6.49406 22.1057 6.61013 21.8135 6.61013Z" fill="white"/>
<path d="M20.0508 2.20339H5.94911C5.65692 2.20339 5.3767 2.08732 5.17009 1.88071C4.96348 1.6741 4.84741 1.39388 4.84741 1.10169C4.84741 0.809507 4.96348 0.529287 5.17009 0.322679C5.3767 0.116071 5.65692 0 5.94911 0L20.0508 0C20.343 0 20.6232 0.116071 20.8298 0.322679C21.0364 0.529287 21.1525 0.809507 21.1525 1.10169C21.1525 1.39388 21.0364 1.6741 20.8298 1.88071C20.6232 2.08732 20.343 2.20339 20.0508 2.20339Z" fill="white"/>
<path d="M16.3051 18.4468H9.69496C9.40277 18.4468 9.12255 18.3307 8.91594 18.1241C8.70933 17.9175 8.59326 17.6373 8.59326 17.3451C8.59326 17.0529 8.70933 16.7727 8.91594 16.5661C9.12255 16.3595 9.40277 16.2434 9.69496 16.2434H16.3051C16.5973 16.2434 16.8775 16.3595 17.0841 16.5661C17.2908 16.7727 17.4068 17.0529 17.4068 17.3451C17.4068 17.6373 17.2908 17.9175 17.0841 18.1241C16.8775 18.3307 16.5973 18.4468 16.3051 18.4468Z" fill="white"/>
<path d="M13.0001 21.7519C12.7079 21.7519 12.4277 21.6358 12.2211 21.4292C12.0145 21.2226 11.8984 20.9424 11.8984 20.6502V14.04C11.8984 13.7479 12.0145 13.4676 12.2211 13.261C12.4277 13.0544 12.7079 12.9384 13.0001 12.9384C13.2923 12.9384 13.5725 13.0544 13.7791 13.261C13.9858 13.4676 14.1018 13.7479 14.1018 14.04V20.6502C14.1018 20.9424 13.9858 21.2226 13.7791 21.4292C13.5725 21.6358 13.2923 21.7519 13.0001 21.7519Z" fill="white"/>
</svg>
