<svg width="25" height="24" viewBox="0 0 25 24" fill="none" xmlns="http://www.w3.org/2000/svg">
<g clip-path="url(#clip0)">
<path fill-rule="evenodd" clip-rule="evenodd" d="M12.2822 0C5.65483 0 0.282227 5.3726 0.282227 12C0.282227 18.6274 5.65483 24 12.2822 24C18.9096 24 24.2822 18.6274 24.2822 12C24.2822 5.3726 18.9096 0 12.2822 0ZM5.08224 8.0386L9.42973 5.2L12.4717 7.7391L8.08833 10.4458L5.08224 8.0386ZM8.08833 10.4458V10.4458V10.4458L12.4718 13.1525L16.8554 10.4459L19.8613 12.8532L15.5139 15.6917L12.4718 13.1526L9.42968 15.6918L5.08223 12.8532L8.08833 10.4458ZM19.8614 8.0386L15.5139 5.2L12.4718 7.73905L16.8553 10.4458L19.8614 8.0386ZM9.42978 16.2306L12.4807 13.6988L15.5317 16.2306L16.8374 15.3781V16.3337L12.4807 18.9463L8.12413 16.3337V15.3781L9.42978 16.2306Z" fill="#5A676B"/>
</g>
<defs>
<clipPath id="clip0">
<rect width="24" height="24" fill="white" transform="translate(0.282227)"/>
</clipPath>
</defs>
</svg>
