<svg width="24" height="24" viewBox="0 0 24 24" fill="none" xmlns="http://www.w3.org/2000/svg">
<path d="M11.2422 9.78284L7.38184 13.8701L10.895 11.9425L12.7307 13.8701L16.5695 9.78284L13.0952 11.6767L11.2422 9.78284Z" fill="#5A676B"/>
<path d="M11.9135 0C5.33488 0 0 5.33488 0 11.9135C0 18.4922 5.33488 23.8271 11.9135 23.8271C18.4922 23.8271 23.8271 18.4922 23.8271 11.9135C23.8271 5.33488 18.4922 0 11.9135 0ZM12.0066 18.2908C11.2691 18.2908 10.5572 18.1866 9.88753 17.9937L7.48505 19.3595V16.7901C5.87587 15.5656 4.84824 13.7007 4.84824 11.612C4.84824 7.92315 8.05313 4.93295 12.0066 4.93295C15.9603 4.93295 19.165 7.92315 19.165 11.612C19.165 15.3004 15.9603 18.2908 12.0066 18.2908Z" fill="#5A676B"/>
</svg>
