<svg width="25" height="24" viewBox="0 0 25 24" fill="none" xmlns="http://www.w3.org/2000/svg">
<g clip-path="url(#clip0)">
<path d="M13.6152 11.145L11.965 10.7788C11.3373 10.6358 10.6148 10.4468 10.6148 9.85504C10.6148 9.26196 11.1216 8.84759 12.0366 8.84759C13.8807 8.84759 13.7122 10.1149 14.6277 10.1149C15.1095 10.1149 15.5312 9.8316 15.5312 9.34454C15.5312 8.20801 13.7122 7.3551 12.1692 7.3551C10.4941 7.3551 8.71033 8.06647 8.71033 9.96106C8.71033 10.8735 9.03625 11.8441 10.8318 12.2944L13.0613 12.851C13.736 13.0173 13.9048 13.3968 13.9048 13.7393C13.9048 14.3087 13.3392 14.865 12.3146 14.865C10.313 14.865 10.5908 13.3247 9.51819 13.3247C9.03625 13.3247 8.68652 13.6567 8.68652 14.1304C8.68652 15.054 9.80786 16.2864 12.3146 16.2864C14.6995 16.2864 15.8813 15.1369 15.8813 13.5973C15.8813 12.6033 15.423 11.5479 13.6152 11.145Z" fill="#5A676B"/>
<path d="M12.2822 0C5.65582 0 0.282227 5.3736 0.282227 12C0.282227 18.6264 5.65582 24 12.2822 24C18.9086 24 24.2822 18.6264 24.2822 12C24.2822 5.3736 18.9086 0 12.2822 0ZM18.53 18.23C17.741 19.0193 16.6925 19.4531 15.577 19.4531C14.8545 19.4531 14.147 19.2653 13.522 18.9117C13.1165 18.9836 12.701 19.0215 12.2864 19.0215C11.3339 19.0215 10.4096 18.8348 9.54004 18.4662C8.69922 18.1117 7.94501 17.6025 7.29663 16.9545C6.64899 16.3066 6.14032 15.5524 5.78528 14.712C5.41687 13.8419 5.23047 12.9181 5.23047 11.9654C5.23047 11.5574 5.26709 11.1489 5.33667 10.7492C4.99371 10.1323 4.81116 9.43433 4.81116 8.72406C4.81116 7.6084 5.24585 6.55939 6.03448 5.77057C6.82349 4.98138 7.8725 4.54688 8.98816 4.54688C9.67151 4.54688 10.3468 4.71735 10.947 5.0365C10.9481 5.03632 10.9494 5.03632 10.9503 5.03595C11.3879 4.95209 11.8375 4.90979 12.2864 4.90979C13.2388 4.90979 14.1629 5.09637 15.0325 5.46423C15.8724 5.81964 16.6275 6.32831 17.275 6.97614C17.9233 7.62415 18.4318 8.37872 18.7872 9.21899C19.1556 10.0889 19.342 11.0129 19.342 11.9654C19.342 12.3948 19.3016 12.8245 19.2245 13.2444C19.5698 13.8636 19.7535 14.564 19.7535 15.2767C19.7533 16.3923 19.3192 17.4415 18.53 18.23Z" fill="#5A676B"/>
</g>
<defs>
<clipPath id="clip0">
<rect width="24" height="24" fill="white" transform="translate(0.282227)"/>
</clipPath>
</defs>
</svg>
