<svg width="24" height="24" viewBox="0 0 24 24" fill="none" xmlns="http://www.w3.org/2000/svg">
<g clip-path="url(#clip0)">
<path d="M11.9135 0C5.33488 0 0 5.33488 0 11.9135C0 18.4922 5.33488 23.8271 11.9135 23.8271C18.4922 23.8271 23.8271 18.4922 23.8271 11.9135C23.8271 5.33488 18.4922 0 11.9135 0ZM12.166 18.85C12.1659 18.85 12.1662 18.85 12.166 18.85H12.1631C10.9697 18.8494 9.797 18.5502 8.75555 17.9823L4.97567 18.9736L5.98731 15.2797C5.36324 14.1988 5.03493 12.9724 5.03548 11.7161C5.03711 7.7859 8.23582 4.58847 12.166 4.58847C14.0733 4.58919 15.8638 5.33161 17.2099 6.67882C18.5562 8.02622 19.2971 9.81718 19.2964 11.7218C19.2948 15.6522 16.0957 18.85 12.166 18.85Z" fill="#5A676B"/>
<path d="M12.1684 5.79236C8.89934 5.79236 6.24071 8.44989 6.23926 11.7166C6.23889 12.836 6.55229 13.9262 7.14546 14.8695L7.28635 15.0936L6.68754 17.28L8.93061 16.6917L9.14711 16.8201C10.057 17.36 11.1 17.6455 12.1635 17.6459H12.1659C15.4324 17.6459 18.091 14.9882 18.0925 11.7213C18.093 10.1381 17.4771 8.64967 16.3582 7.52987C15.2393 6.41007 13.7512 5.7929 12.1684 5.79236ZM15.6543 14.2638C15.5058 14.6797 14.7941 15.0595 14.4518 15.1107C14.1448 15.1565 13.7565 15.1756 13.3297 15.0402C13.0708 14.958 12.739 14.8484 12.3138 14.665C10.5267 13.8935 9.35944 12.0945 9.27036 11.9756C9.18129 11.8567 8.54286 11.0098 8.54286 10.133C8.54286 9.25648 9.00314 8.82546 9.16638 8.64731C9.32981 8.46898 9.52287 8.42444 9.64157 8.42444C9.76028 8.42444 9.87917 8.42553 9.98297 8.43062C10.0924 8.43608 10.2393 8.38899 10.3838 8.73639C10.5323 9.09305 10.8886 9.96962 10.9332 10.0587C10.9777 10.148 11.0073 10.2519 10.9481 10.3708C10.8886 10.4897 10.6912 10.7462 10.5027 10.98C10.4236 11.078 10.3205 11.1652 10.4245 11.3436C10.5283 11.5217 10.8861 12.1051 11.4156 12.5773C12.0962 13.1841 12.6703 13.3721 12.8485 13.4614C13.0264 13.5504 13.1304 13.5355 13.2344 13.4168C13.3382 13.2979 13.6798 12.8967 13.7985 12.7184C13.9172 12.5401 14.0361 12.5699 14.1993 12.6293C14.3627 12.6886 15.2386 13.1196 15.4167 13.2087C15.5949 13.2979 15.7136 13.3425 15.7581 13.4168C15.8029 13.4912 15.8029 13.8477 15.6543 14.2638Z" fill="#5A676B"/>
</g>
<defs>
<clipPath id="clip0">
<rect width="23.8271" height="23.8271" fill="white"/>
</clipPath>
</defs>
</svg>
