<svg xmlns="http://www.w3.org/2000/svg" width="25" height="25" viewBox="0 0 25 25">
  <defs>
    <style>.a{fill:#fff;}</style>
  </defs>
  <path d="M12.5,25A12.5,12.5,0,0,1,3.661,3.661,12.5,12.5,0,0,1,21.339,21.339,12.418,12.418,0,0,1,12.5,25ZM17.632,9.477a3.85,3.85,0,0,0-2.815,1.077,4.2,4.2,0,0,0-1.085,3.1,3.751,3.751,0,0,0,1.2,3.109,4.344,4.344,0,0,0,2.774.955,3.875,3.875,0,0,0,2.963-1.132,2.554,2.554,0,0,0,.762-1.4h-2.1a1.7,1.7,0,0,1-.424.534,1.766,1.766,0,0,1-1.142.356,2.119,2.119,0,0,1-1.136-.292,1.864,1.864,0,0,1-.825-1.638h5.738a9.665,9.665,0,0,0-.069-1.543,3.753,3.753,0,0,0-.629-1.606,3.179,3.179,0,0,0-1.359-1.149,4.511,4.511,0,0,0-1.845-.365ZM4.312,6.946v10.5h4.8a7.558,7.558,0,0,0,1.5-.141,2.979,2.979,0,0,0,1.2-.528,2.922,2.922,0,0,0,.754-.825,3.05,3.05,0,0,0,.474-1.675,2.768,2.768,0,0,0-.414-1.539,2.4,2.4,0,0,0-1.231-.928,2.579,2.579,0,0,0,.813-.6,2.323,2.323,0,0,0,.492-1.547,2.658,2.658,0,0,0-.488-1.6,3.3,3.3,0,0,0-2.76-1.12Zm11.012.49V8.743h4.564V7.437Zm-6.3,8.192H6.435v-2.8H9.057A2.758,2.758,0,0,1,10.122,13a1.133,1.133,0,0,1,.678,1.128,1.328,1.328,0,0,1-.7,1.312A2.544,2.544,0,0,1,9.021,15.628ZM19.4,12.8H15.856a2.11,2.11,0,0,1,.549-1.2,1.658,1.658,0,0,1,1.228-.445,1.842,1.842,0,0,1,1.223.418A1.711,1.711,0,0,1,19.4,12.8ZM9.024,11.089H6.435V8.771H8.753a4.1,4.1,0,0,1,1.259.164.948.948,0,0,1,.572.972.991.991,0,0,1-.434.922A2.172,2.172,0,0,1,9.024,11.089Z" fill="#fff"/>
</svg>
