<svg xmlns="http://www.w3.org/2000/svg" width="25" height="25" viewBox="0 0 25 25">
  <defs>
    <style>.a{fill:#fff;}</style>
  </defs>
  <path id="bird" d="M12.5,0A12.549,12.549,0,0,0,0,12.5,12.974,12.974,0,0,0,9.57,25V20.865a3.01,3.01,0,0,1-3.374-1.5c-.284-.479-.787-1-1.312-.961l-.129-1.459a3.012,3.012,0,0,1,2.7,1.671,1.62,1.62,0,0,0,.94.8,1.969,1.969,0,0,0,1.23-.107,3.433,3.433,0,0,1,.861-1.761h0c-3.256-.486-4.553-2.213-5.068-3.576a5.736,5.736,0,0,1,.891-5.5.2.2,0,0,0,.049-.152,4.8,4.8,0,0,1,.146-3.2A5.061,5.061,0,0,1,9.278,6.165l.351.211c.147.088.1.038.248.027A10.608,10.608,0,0,1,12.5,6.033a10.654,10.654,0,0,1,2.659.378l.114.011c-.01,0,.031-.007.1-.048C17.91,4.838,17.819,5.34,18.5,5.119a4.877,4.877,0,0,1,.142,3.2c-.074.227,2.2,2.31.94,5.652-.515,1.364-1.812,3.091-5.068,3.577h0a3.214,3.214,0,0,1,.916,2.287V25A12.973,12.973,0,0,0,25,12.5,12.549,12.549,0,0,0,12.5,0Zm0,0" fill="#fff"/>
</svg>
