<svg xmlns="http://www.w3.org/2000/svg" width="25" height="25" viewBox="0 0 25 25">
  <defs>
    <style>.a{fill:#fff;}</style>
  </defs>
  <path d="M211.564,209.282A2.282,2.282,0,1,1,209.282,207,2.282,2.282,0,0,1,211.564,209.282Zm0,0" transform="translate(-196.782 -196.782)" fill="#fff"/>
  <path d="M146.434,137.063a2.267,2.267,0,0,0-1.3-1.3,3.787,3.787,0,0,0-1.271-.236c-.722-.033-.939-.04-2.766-.04s-2.045.007-2.766.04a3.79,3.79,0,0,0-1.271.236,2.268,2.268,0,0,0-1.3,1.3,3.789,3.789,0,0,0-.236,1.271c-.033.722-.04.938-.04,2.766s.007,2.044.04,2.766a3.788,3.788,0,0,0,.236,1.271,2.267,2.267,0,0,0,1.3,1.3,3.783,3.783,0,0,0,1.271.236c.722.033.938.04,2.766.04s2.045-.007,2.766-.04a3.783,3.783,0,0,0,1.271-.236,2.267,2.267,0,0,0,1.3-1.3,3.792,3.792,0,0,0,.236-1.271c.033-.722.04-.939.04-2.766s-.007-2.045-.04-2.766A3.783,3.783,0,0,0,146.434,137.063Zm-5.337,7.553a3.515,3.515,0,1,1,3.515-3.515A3.515,3.515,0,0,1,141.1,144.616Zm3.654-6.348a.822.822,0,1,1,.822-.822A.822.822,0,0,1,144.751,138.268Zm0,0" transform="translate(-128.597 -128.601)" fill="#fff"/>
  <path d="M12.5,0A12.5,12.5,0,1,0,25,12.5,12.5,12.5,0,0,0,12.5,0Zm7.134,15.459A5.266,5.266,0,0,1,19.3,17.2a3.67,3.67,0,0,1-2.1,2.1,5.27,5.27,0,0,1-1.742.334c-.765.035-1.01.043-2.959.043s-2.194-.008-2.959-.043A5.27,5.27,0,0,1,7.8,19.3a3.67,3.67,0,0,1-2.1-2.1,5.265,5.265,0,0,1-.334-1.742c-.035-.766-.043-1.01-.043-2.959s.008-2.194.043-2.959A5.267,5.267,0,0,1,5.7,7.8,3.673,3.673,0,0,1,7.8,5.7a5.271,5.271,0,0,1,1.742-.334c.765-.035,1.01-.043,2.959-.043s2.194.008,2.959.043A5.272,5.272,0,0,1,17.2,5.7a3.671,3.671,0,0,1,2.1,2.1,5.266,5.266,0,0,1,.334,1.742c.035.765.043,1.01.043,2.959S19.67,14.694,19.634,15.459Zm0,0" fill="#fff"/>
</svg>
