<svg xmlns="http://www.w3.org/2000/svg" width="25" height="25" viewBox="0 0 25 25">
  <defs>
    <style>.a{fill:#fff;}</style>
  </defs>
  <path d="M12.5,25A12.5,12.5,0,0,1,3.661,3.661,12.5,12.5,0,0,1,21.339,21.339,12.418,12.418,0,0,1,12.5,25Zm-.934-8.861h0L15,18.652a1.169,1.169,0,0,0,.552.171c.344,0,.576-.252.69-.75L18.49,7.52a1.076,1.076,0,0,0-.121-.914.6.6,0,0,0-.485-.218.984.984,0,0,0-.343.066L4.306,11.522c-.448.174-.7.4-.693.623.007.188.2.356.539.46l3.384,1.052L15.4,8.739a.706.706,0,0,1,.368-.13c.081,0,.14.027.158.072s-.015.12-.1.192l-6.358,5.71L9.22,18.055a.867.867,0,0,0,.689-.334l1.655-1.582Z" fill="#fff"/>
</svg>
