<svg xmlns="http://www.w3.org/2000/svg" width="25" height="25" viewBox="0 0 25 25">
  <defs>
    <style>.a{fill:#fff;}</style>
  </defs>
  <path d="M0,12.5A12.5,12.5,0,1,1,12.5,25,12.5,12.5,0,0,1,0,12.5ZM6.388,7.353a2,2,0,0,0-1.377,1.39A20.617,20.617,0,0,0,4.689,12.5a20.541,20.541,0,0,0,.322,3.757,1.958,1.958,0,0,0,1.377,1.377,45.809,45.809,0,0,0,6.112.335,47.511,47.511,0,0,0,6.112-.322,1.957,1.957,0,0,0,1.377-1.377,20.63,20.63,0,0,0,.322-3.757,19.578,19.578,0,0,0-.322-3.77,1.958,1.958,0,0,0-1.377-1.377A45.712,45.712,0,0,0,12.5,7.031,47.51,47.51,0,0,0,6.388,7.353Zm4.555,2.805L15.009,12.5l-4.066,2.342Z" fill="#fff"/>
</svg>
